<?xml version="1.0" encoding="UTF-8"?>
<!DOCTYPE svg PUBLIC "-//W3C//DTD SVG 1.1//EN" "http://www.w3.org/Graphics/SVG/1.1/DTD/svg11.dtd">
<!-- Creator: CorelDRAW 2021 (64-Bit Keine kommerzielle Nutzung) -->
<svg xmlns="http://www.w3.org/2000/svg" xml:space="preserve" width="200mm" height="200mm" version="1.1" shape-rendering="geometricPrecision" text-rendering="geometricPrecision" image-rendering="optimizeQuality" fill-rule="evenodd" clip-rule="evenodd"
viewBox="0 0 20000 20000"
 xmlns:xlink="http://www.w3.org/1999/xlink"
 xmlns:xodm="http://www.corel.com/coreldraw/odm/2003">
 <g id="Ebene_x0020_1">
  <metadata id="CorelCorpID_0Corel-Layer"/>
  <ellipse fill="#E6E6E6" cx="9951.41" cy="18258.49" rx="5806.31" ry="927.14"/>
  <g id="_1157740186304">
   <path fill="#050506" d="M11488.04 1298.01c-30.42,-14.7 -114.23,-166.45 -147.42,-206.42 -167.42,-201.62 -359.23,-388.55 -650.63,-416.27 -125.11,-11.9 -214.06,-2.35 -264.68,90.59 -195.75,359.39 150.75,625.36 178.38,799.97 -212.49,-5.04 -415.67,-22.22 -638.11,-18.52 -559.57,9.31 -1049.22,164.49 -1530.22,416.73 -705.6,370.01 -1201.85,977.63 -1585.75,1664.04 -43.98,78.63 -69.04,121.98 -117.05,202.06 -124.47,207.59 -219.19,434.02 -324.6,652.84 -140.32,291.28 -272.17,608 -368.44,924.73 -223.86,736.44 -213.76,987.09 -194.45,1763.93 -396.91,-51.97 -964.29,-268.26 -1357.63,-101.84 -98.13,41.53 -210.46,145.13 -266.96,253.28 -144.13,275.86 -42.01,578.13 95.68,804.58 91.26,150.09 289.99,376 453.31,462.62 30.54,16.2 70.71,25.83 95.72,50.76 -58.45,45.55 -128.27,149.67 -183.3,197.4 -456.61,396.04 -386.55,909.34 57.55,1239.98 528.21,393.27 1283.42,23.59 1801.74,-120.03 332.62,-92.17 919.02,-259.23 1293.91,-233.29 18.01,769.62 -463.64,1725.21 -837.2,2177.75 -119.85,145.19 -240.02,244.26 -385.87,363.78 -717.57,588.06 -842.85,-111.84 -1093.03,-746.22 -243.65,-617.84 -556.53,-855.9 -1182.39,-1063.55 -104.9,-34.81 -190.15,-66.48 -294.34,-88.74 -544.19,-116.23 -1141.73,-133.92 -1632.57,96.43 -268.97,126.23 -654.67,434.76 -420.49,753.14 42.14,57.29 55.48,41.84 109,72.62 -260.89,363.07 20.44,736.79 200.3,788.27 269.94,77.27 815.55,102.12 1130.56,88.05 16.4,179.51 -40.59,314.17 8.84,628.17 113.41,720.31 415.71,1239.61 967.34,1681.34 277.44,222.16 626.81,324.54 977.53,350.08 134.84,9.81 535.62,37.32 648.64,2.31 30.45,342.69 135.19,593.21 280.75,850.91 76.97,136.26 145.12,230.67 229.63,330.23 376.98,444.13 854.84,691.73 1417.75,839.29 70.01,18.35 152.08,44.68 226.11,58.97 40.23,7.76 255.57,-0.15 261.31,40.97 0.86,6.21 7.76,15.72 9.06,19.14 3.53,9.3 9.69,31.54 11.7,39.08 8.15,30.53 11,48.49 18.92,82.04 13.46,57.01 44.12,90.24 42.75,140.5 -280.55,-8.77 -721.13,87.17 -1004.61,131.71 -241.06,37.88 -1232.19,193.15 -1428.36,257.51 -366.21,120.16 -430.53,455.17 -46.15,570.79 130.73,39.32 345.75,61.48 453.01,117.97 74.26,101.12 5.72,356.95 226.54,407.68 93.31,21.43 395.01,31.96 576.99,69.02 687.06,139.92 1555.53,3.41 2200.96,-243.01 149.92,-57.23 302.49,-119.76 433.64,-203.3 224.04,-142.69 209.67,-207.32 216.33,-435.1 47.2,20.43 177.62,251.61 223.95,310.09 164.61,207.78 617.47,682.35 870.22,751.72 235.07,64.51 404.55,-69.49 575.75,-187.26 67.14,-46.18 122.35,-47.24 219.75,-54.7 336.07,-25.75 643.57,-83.4 965.66,-119.14 308.36,-34.22 599.68,-103.21 898.49,-178.71 143.87,-36.35 268.82,-106.29 273.79,-265.22 13.09,-418.53 -687.67,-416.2 -1107.45,-522.92 -171.98,-43.72 -773.35,-163.16 -857.69,-232.12 -5.11,-81.86 25.88,-459.15 54.48,-491.59 18.67,-21.17 369.67,-123.4 427.3,-142.83 148.59,-50.1 272.87,-106.54 407.88,-165.68 130.84,-57.3 236.53,-132.04 361.39,-208.21 701.48,-427.91 485.1,-695.06 632.84,-776.98 702.46,-389.51 1173.55,-876.72 1378.95,-1758.44 74.64,-320.43 117.32,-622.34 170.48,-955.41 55.04,-344.83 95.53,-677.41 94.42,-1056.55 -0.8,-298.01 -8.31,-417.58 -124.11,-642.83 -268.38,-522.03 -961.95,-309.06 -1349.28,-65.08l-233.23 154.99c-46.9,-60.78 -85.95,-150.49 -131.54,-217.02 -151.75,-221.43 -369.49,-426.19 -681.07,-413.45 -23.79,55.97 -27.36,132.11 -43.83,189.32 -17.52,60.86 -37.38,124.71 -56.31,184.3 -24.96,78.57 -96.23,285.15 -166.49,311.42 -29.25,-55.4 -23.05,-88.7 -74.01,-165.02 -31.98,-47.89 -73.43,-96.9 -113.93,-126.56 -92.56,-67.77 -292.86,-93.49 -359.85,0.7 -42.79,60.16 -95.39,282.53 -117.13,368.6l-84.21 403.84c-168.73,-12.76 -432.46,-25.61 -581.66,-74.54 -177.47,-58.21 -170.04,-341.51 -150.51,-497.37 52.8,-421.26 144.04,-673.43 313.28,-1023.13 58.44,-120.77 191.16,-299.09 270.7,-390.31 117.16,-134.34 199.67,-216.95 336.64,-335.61 280.62,-243.08 431.88,-346.45 710.63,-623.32 236.47,-234.89 443.79,-412.22 666.09,-654.1 156.3,-170.07 420.89,-570.52 527.22,-806.65 77.02,-171.02 133.55,-285.38 191.72,-465.63 190.75,-591.1 340.42,-1080.54 340.49,-1740.4 0.09,-827.86 -176.82,-1614.08 -650.13,-2266.97 -510.67,-704.43 -1034.81,-950.06 -1865.3,-1067.2 -22.55,-325.61 213.23,-911.74 -235.41,-1389.18 -193.91,-206.36 -352.99,-246.84 -466.23,65.48 -87.79,242.15 -112.34,475.72 -132.45,734.7z"/>
   <path fill="#FDEC51" d="M10575.08 1860.94c-36.49,-3.2 -28.47,4.04 -56.41,11.7l-82.85 12.06c-100.28,1.67 -359.52,-2.76 -429.68,35.25 13.48,56.95 28.95,-6.36 25.61,141.91 -1.38,61.33 -34.48,62.69 -64.04,110.52 -30.15,48.79 -104.12,55.37 -148.57,96.04 -40.97,37.49 -59.11,47.06 -118.32,67.38 -66.8,22.93 -74.67,28.39 -166.94,30.11 -16.35,23.56 -18.63,46.76 -47.27,64.24l-134.84 55.92c-41.37,31.83 -88.2,29.63 -134.6,56.5l-172.48 81.03c-83.01,37.32 -111.7,43.38 -203.95,51.85 -34.1,84.39 -40.35,61.73 -112.5,115.11 -25.76,19.05 -15.14,14.94 -47.81,28.17 -112.26,45.46 -104.6,47.48 -185.86,119 -44.73,39.37 -44.82,25.05 -102.42,50.16 -41.33,18.02 -51.88,40.31 -93.11,58.95 -37.41,16.92 -83.79,19.88 -132.02,12.27 -93.58,-14.75 -60.33,-29.58 -118.69,-46.65 -91.84,7.7 -90.86,296.28 -190.85,380.01l-103.84 86.85c-159.93,93.39 -103.36,67.2 -204.47,176.23l-114.81 162.43c-13.46,24.77 -17.04,41.37 -34.18,67.81 -13.05,20.11 -17.13,21.71 -36.94,54.22 -15.43,25.34 -21.95,37.6 -40.06,60.97 -82.92,107.02 -150.75,232.17 -211.08,360.61 -30.42,64.76 -76.94,113.14 -104.16,176.9 -12.83,30.07 -13.87,46.16 -27.75,72.7l-75.99 112.58c-36.93,61.66 -14.36,77.11 -78.92,116.49 -1.16,43.43 -5.25,99.09 -22.52,137.08 -10.3,22.68 -14.33,33.25 -39.34,39.18 -42.5,10.06 -29.03,-11.06 -29.47,-11.19 -13.05,35.36 -12.03,80.27 -13.12,130.32 -72.64,5.57 -106.66,5.78 -137.89,-61.25 -11.8,100.47 6,33.46 -31.56,60.13 -30.04,21.33 -33.25,-12.89 -45.91,58.43 34.64,-40.83 -1.2,-17.45 47.59,-41.08 -7.27,72.14 -16.86,44.34 -54.67,81.46 -33.27,32.67 -34.95,56.11 -35.54,102.11l61.77 23.87c-0.93,66.92 13.92,179.07 -12.05,228.16 -29.73,-22 -19.94,-2.57 -28.23,-48.86 -2.94,-16.44 -1.42,-63.79 -1.51,-83l-74.99 -24.82c-7.63,84.79 4.84,130.95 -35.83,196.03 -66.73,106.8 -7.36,94.26 -11.53,191.11l-30.75 0c1.87,41.21 4.71,33.21 -6.3,73.86 -22.02,81.33 -44.84,57.87 -52.62,193.36 -9.14,159.18 -116.69,605.59 -72.49,860.63 0.61,3.47 1.74,7.2 2.41,10.2l27.34 -39.42c13.93,-69.47 -3.2,-173.38 29.98,-233.51 21.65,32.58 13.6,85.93 13.47,125.1 -1.02,308.23 -54.66,70.5 -29.66,257.62 9.61,71.93 3.25,78.03 25.25,151.67 106.2,-5.4 192.73,28.61 292.37,7.93l132.04 1.47c44.46,12.99 19.81,10.31 54.66,20.8 172.59,51.9 1327.67,189.72 1416.84,195.13l209.61 16.88c2.79,0.62 26.84,8.3 28.64,9.48l14.85 14.2c2.21,2.4 4.47,7.28 6.16,9.43 1.75,2.23 4.64,6.46 5.74,10.21 377.67,98.72 1440.16,-119.31 2039.83,441.28 279.87,261.63 393.84,665.82 461.09,1041.47 51.36,-51.62 170.48,-458.61 190.75,-561.13 77.3,-391.01 31.65,-963.42 -192.18,-1275.72 -47.12,-65.74 -119.16,-147.6 -167.48,-218.64 -43.38,-63.77 -142.56,-145.16 -241.51,-148.61 -290.47,54.45 -488.72,481.88 -527.54,510.36 -124.77,-174.65 -51.81,-843.93 -6.39,-1094.94 124.03,-685.47 601.57,-1341.33 1246.24,-1576.59 541.09,-197.47 1095.63,-62.98 1423.18,413.59 110.08,160.17 73.06,138.68 129.43,258.44 2.41,3.48 15.19,17.68 17.32,20.12l22.11 44.1c4.11,-96.27 44.74,-137.99 53.93,-244.24 29.05,-335.83 68.54,-377.61 28.04,-802.15 -60.67,-635.55 -154.68,-1149.92 -501.21,-1706.2 -114.09,-183.14 -395.02,-374.38 -571.5,-524.94 18.51,-145.1 109.79,-379.02 146.56,-620.53 28.93,-190.04 42.97,-502.55 31.18,-693.96 5.65,-54.22 -49.28,-146.71 -88.94,-183.48 -2.58,2.39 -6.24,2.72 -7.34,7.57l-37.58 56.36c-87.33,172.91 -95.83,396.37 -134.93,584.97 -20.79,100.34 -102.37,628.45 -175.67,662.5 -30.28,-17.96 -307.07,-467.25 -365.23,-546.07 -82.01,-111.13 -118.87,-139.38 -228.8,-228.83 -41.13,-33.46 -210.15,-180.71 -282.06,-184.24 -83.4,116.12 -60.4,164.6 26.66,311.52 170.3,287.39 557,666.11 578.36,766.31 -94.64,-8.8 -247.57,-59.52 -345.4,-85.8 -121.61,-32.67 -244.19,-36.15 -373.86,-64.56zm-2147.06 5642.04c-1.1,-3.75 -3.99,-7.98 -5.74,-10.21 -1.69,-2.15 -3.95,-7.03 -6.16,-9.43l-14.85 -14.2c-1.8,-1.18 -25.85,-8.86 -28.64,-9.48l-209.61 -16.88c-89.17,-5.41 -1244.25,-143.23 -1416.84,-195.13 -34.85,-10.49 -10.2,-7.81 -54.66,-20.8l-132.04 -1.47c-99.64,20.68 -186.17,-13.33 -292.37,-7.93 -22,-73.64 -15.64,-79.74 -25.25,-151.67 -25,-187.12 28.64,50.61 29.66,-257.62 0.13,-39.17 8.18,-92.52 -13.47,-125.1 -33.18,60.13 -16.05,164.04 -29.98,233.51l-27.34 39.42c-0.67,-3 -1.8,-6.73 -2.41,-10.2 -44.2,-255.04 63.35,-701.45 72.49,-860.63 7.78,-135.49 30.6,-112.03 52.62,-193.36 11.01,-40.65 8.17,-32.65 6.3,-73.86l30.75 0c4.17,-96.85 -55.2,-84.31 11.53,-191.11 40.67,-65.08 28.2,-111.24 35.83,-196.03l74.99 24.82c0.09,19.21 -1.43,66.56 1.51,83 8.29,46.29 -1.5,26.86 28.23,48.86 25.97,-49.09 11.12,-161.24 12.05,-228.16l-61.77 -23.87c0.59,-46 2.27,-69.44 35.54,-102.11 37.81,-37.12 47.4,-9.32 54.67,-81.46 -48.79,23.63 -12.95,0.25 -47.59,41.08 12.66,-71.32 15.87,-37.1 45.91,-58.43 37.56,-26.67 19.76,40.34 31.56,-60.13 31.23,67.03 65.25,66.82 137.89,61.25 1.09,-50.05 0.07,-94.96 13.12,-130.32 0.44,0.13 -13.03,21.25 29.47,11.19 25.01,-5.93 29.04,-16.5 39.34,-39.18 17.27,-37.99 21.36,-93.65 22.52,-137.08 64.56,-39.38 41.99,-54.83 78.92,-116.49l75.99 -112.58c13.88,-26.54 14.92,-42.63 27.75,-72.7 27.22,-63.76 73.74,-112.14 104.16,-176.9 60.33,-128.44 128.16,-253.59 211.08,-360.61 18.11,-23.37 24.63,-35.63 40.06,-60.97 19.81,-32.51 23.89,-34.11 36.94,-54.22 17.14,-26.44 20.72,-43.04 34.18,-67.81l114.81 -162.43c101.11,-109.03 44.54,-82.84 204.47,-176.23l103.84 -86.85c99.99,-83.73 99.01,-372.31 190.85,-380.01 58.36,17.07 25.11,31.9 118.69,46.65 48.23,7.61 94.61,4.65 132.02,-12.27 41.23,-18.64 51.78,-40.93 93.11,-58.95 57.6,-25.11 57.69,-10.79 102.42,-50.16 81.26,-71.52 73.6,-73.54 185.86,-119 32.67,-13.23 22.05,-9.12 47.81,-28.17 72.15,-53.38 78.4,-30.72 112.5,-115.11 92.25,-8.47 120.94,-14.53 203.95,-51.85l172.48 -81.03c46.4,-26.87 93.23,-24.67 134.6,-56.5l134.84 -55.92c28.64,-17.48 30.92,-40.68 47.27,-64.24 92.27,-1.72 100.14,-7.18 166.94,-30.11 59.21,-20.32 77.35,-29.89 118.32,-67.38 44.45,-40.67 118.42,-47.25 148.57,-96.04 29.56,-47.83 62.66,-49.19 64.04,-110.52 3.34,-148.27 -12.13,-84.96 -25.61,-141.91 70.16,-38.01 329.4,-33.58 429.68,-35.25l82.85 -12.06c27.94,-7.66 19.92,-14.9 56.41,-11.7 -515.99,0.18 -574.86,-34.11 -1119.06,87.17 -394.81,87.98 -1132.14,410.94 -1450.24,690.55 -55.99,49.22 -108.92,107.94 -160.31,157.66 -219.6,212.46 -375.06,431.26 -541.64,689.32 -301,466.3 -635.25,1043.54 -825.55,1624.37 -125.11,381.86 -188.97,536.24 -259.34,971.64 -47.22,292.09 -66.89,560.48 -51.6,866.83 2.91,58.29 13.89,82.91 19.17,139.05 2.15,22.97 2.34,45.58 4.5,69.02l12.85 62.13c10.96,32.7 482.33,65.94 560.74,74.77 167.24,18.82 370.38,56.11 539.06,81.02 205.04,30.29 948.25,125.4 1124.36,128.51zm-354.47 2565.76c-5.02,144.49 -62.87,294.79 -94.86,424.25 -96.69,391.28 -260.85,790.73 -466.96,1137.09 -122.93,206.58 -257.69,450.74 -421.88,632.52 -251.07,277.94 -607.16,1030.71 -708.38,1414.7 -100.25,380.28 -120.73,522.72 -78.11,950.11 29.81,298.95 115.11,581.86 238,811.53 97.74,182.65 351.07,493.96 486.77,574.56 56.24,2.26 15.95,3.83 31.68,-14.37 -30.48,-20.12 -38.02,-35.06 -80.19,-58.8 16.7,-124.06 8.25,-54.68 -11.12,-90.07l-40.59 -99.94c-20.79,-45.85 -65.39,-160.7 -63.93,-210.52 89.41,4.28 76.44,63.52 125.53,115.44l52.64 43.97c91.42,101.52 269.77,165.47 399.61,222.64 115.21,50.72 222.46,111.39 324.88,169.25 96.03,54.24 586.81,268.48 689.5,298.91 245.89,72.87 522.41,169.12 763.31,225.32 87.36,20.38 351.94,65.2 401.67,99.58 200.49,8.26 384.97,37.14 598.4,40.17 206.96,2.93 428.42,-15.25 620.21,-13.02l13.58 -54.96 193.93 -114.32c290.78,-157.04 491.77,-172.28 472.63,-508.89 -20.32,-357.5 -18.9,-446.02 163.94,-794.72 49.35,-94.13 113.48,-161.87 122.11,-207.45 -85.21,-28.84 -69.37,-29.71 -127.19,-75.26 -119.82,-94.39 -224.35,-78.01 -197.58,-332.58l17.61 -65.4c7.88,-16.41 21.61,-3.13 -2.17,-59.79 4.2,-44.29 16.85,-86.94 26.03,-113.07 54.25,-63.72 116.49,-43.28 216.17,-69.6 75.8,-20.02 142.58,-35.71 217.61,-60.15 80.32,-26.15 140.28,-44.4 209.4,-69.6 122.17,-44.56 454.76,-246.23 547.53,-317.09 124.73,-95.26 195.74,-150.52 298.17,-273.98 248.43,-299.43 347.16,-660.07 276.58,-1079.21 -30.05,-178.44 179.96,-267.69 118.99,-433.79 -10.96,-29.87 -37.1,-61.19 -51.6,-84.22 -4.31,-6.85 -21.72,-41.67 -25.06,-49.24l-20.85 -47.59c-1.09,-2.41 -2.76,-6.81 -4.65,-9.94l-55.02 11.1c-58.99,7.19 28.01,227.99 -103.84,457.97 -69.69,121.55 -162.85,227.52 -319.62,260.38l-41.8 -14.08c-27.02,-307.13 34.79,-448.58 -118.97,-692.96 -106.4,-169.12 -173.23,-74.65 -112.81,-248.46l65.39 -238.96c14.29,-38.1 20.51,-29.16 27.62,-81.62l-34.73 -62.35c-61.19,345.15 -271.33,1061.19 -446.15,1326.61 -239.54,363.71 -597.08,668.91 -1065.03,702.86 45.13,185.28 270.78,306.53 266.21,577.48 -132.04,-14.29 -364.23,-283.17 -433.79,-408.48 -66.44,-119.7 -36.63,-104.82 -28,-225.45l-111.54 -18.72c-19.58,-19.03 -9.86,-4.25 -18.36,-34.6 -27.96,-99.75 4.72,73.84 -3.43,-24.6 -2.32,-28.07 15.93,-49.85 -19.5,-123.96 -18.06,-37.77 -24.08,-35.03 -42.03,-59.63 -14.82,-20.31 -24.41,-42.02 -36.89,-64.52 -273.42,-493.09 -476.2,-1406.39 -522.11,-1974.06 -28.27,-349.44 13.58,-205.98 10.75,-384.76 -100.07,-4.8 -903.92,-212.29 -1055.4,-254.98l-1006.74 -307.86c-8.7,9.98 -12.91,3.67 -25.57,31.18z"/>
   <path fill="#D5AA19" stroke="#D5AA19" stroke-width="7.62" stroke-miterlimit="22.9256" d="M12783.44 5292.49c32.48,143.08 63.55,205.82 72.68,372.91 21.99,402.43 -38.57,422.56 -145.3,741.78 -38.66,115.64 -67.5,208.95 -114.98,315.86 -83.84,188.8 -228.97,383.61 -385.37,501.72 -419.66,316.92 -430.15,193.66 -645.06,201.09l-27.17 42.2c-9.25,19.52 -6.2,14.57 -12.98,36.79 -18.91,61.98 -41.52,173.13 -99.52,207.66 -10.15,-14.71 -3.54,-0.48 -14.18,-27.91 -1.47,-3.79 -5.35,-15.75 -6.51,-19.9 -4.66,-16.64 -6.81,-34.75 -9.21,-52.25 -16.45,-119.86 -17.26,-150.69 -57.86,-286.6 -41.54,-139.07 -62.91,-216.6 -142.62,-325.21 -65.17,-88.78 -151.72,-149.83 -274.13,-195.76 -99.52,-37.33 -204.88,-58.05 -308.39,-50.95l-84.77 22.56c-1.71,-2.86 -6.46,3.27 -9.55,5.15 98.95,3.45 182.06,99.58 225.44,163.35 48.32,71.04 121.29,146.31 168.41,212.05 223.83,312.3 267.68,870.39 190.38,1261.4 -20.27,102.52 -122.45,515.68 -173.81,567.3 16.58,172.89 74.61,306.03 30.96,506.22 -30.2,138.52 -97.98,281.58 -162.07,383.08 -167.84,265.82 -496.76,244.39 -823.74,148.58 -283.37,-83.03 -565.55,-175.24 -856.41,-233.48 -202,-40.45 -769.64,-137.36 -984.96,-92.24l-59.17 370.85c12.66,-27.51 16.87,-21.2 25.57,-31.18l1006.74 307.86c151.48,42.69 955.33,250.18 1055.4,254.98 2.83,178.78 -39.02,35.32 -10.75,384.76 45.91,567.67 248.69,1480.97 522.11,1974.06 12.48,22.5 22.07,44.21 36.89,64.52 17.95,24.6 23.97,21.86 42.03,59.63 35.43,74.11 17.18,95.89 19.5,123.96 8.15,98.44 -24.53,-75.15 3.43,24.6 8.5,30.35 -1.22,15.57 18.36,34.6l-4.7 -74.27c62.95,-30.82 173.46,-33.42 255.37,-42.37 373.95,-40.89 679.88,-293.24 887.4,-592.9 51.75,-74.72 209.24,-310.87 217.15,-376.2 -205.73,15.77 -287.48,-1.11 -467.45,-67.27 -132.32,-48.65 -257.72,-133.47 -343.26,-227.29 -234.95,-257.73 -216.99,-529.97 -158.54,-925.51 65.34,-442.1 262.35,-845.46 530.13,-1177.87 419.17,-520.33 648.23,-731.93 1155.02,-1117.2 538.53,-409.41 977.16,-1028.8 1190.09,-1665.82 102.87,-307.78 191.69,-517.38 266.53,-864.77 71.3,-330.92 122.39,-650.92 132.72,-1015.46 10.27,-362.67 -32.22,-709.96 -114.01,-1033.63 -77.48,-306.65 -180.44,-553.31 -331.02,-812.32 -274.86,-472.77 -725.14,-876.71 -1252.97,-1029.85 -448.92,-130.25 -731.21,167.83 -706.85,-438.66 7.07,-175.98 30.99,-349.02 33.44,-532.74 1.16,-86.6 5.65,-191.94 -3.2,-276.92 -6.5,-62.42 -23.25,-186.36 -68.81,-230.79 11.79,191.41 -23.69,503.92 -52.62,693.96 -36.77,241.51 -122.92,481.26 -141.43,626.36l224.03 171.38c2.14,1.53 5.13,3.8 7.26,5.34 2.11,1.54 5.05,3.84 7.17,5.39 127.34,93.16 240.4,213.61 324.89,349.23 346.53,556.28 429.85,1056.07 490.52,1691.62 15.68,164.35 11.86,378.06 7.9,544.99 -2.23,94.06 -10.41,170.14 -17.74,254.89 -9.19,106.25 -35.51,130.57 -39.62,226.84l-19.47 -22.08c-2.13,-2.44 -14.91,-16.64 -17.32,-20.12z"/>
   <path fill="#D5AA19" stroke="#D5AA19" stroke-width="7.62" stroke-miterlimit="22.9256" d="M14372.23 12046.93c20.4,313.55 33.53,288.29 22.14,640.61 -7.16,221.33 -38.78,393.56 -86.91,582.55 -179.7,705.55 -620.71,1127.2 -1258.67,1434.57l-459.98 212.98c-166.14,87.25 -309.88,138.95 -549.29,137.37 11.64,-74.37 27.75,-55.74 53.27,-120.6 -55.11,-39.61 -142.73,-35.88 -339.11,-162.61 -223.2,-144.04 -202.12,-200.06 -257.09,-243.11 23.78,56.66 4.51,42.38 -3.37,58.79l-12.07 66.4c-26.77,254.57 77.76,238.19 197.58,332.58 57.82,45.55 41.98,46.42 127.19,75.26 -8.63,45.58 -72.76,113.32 -122.11,207.45 -182.84,348.7 -184.26,437.22 -163.94,794.72 19.14,336.61 -181.85,351.85 -472.63,508.89l-193.93 114.32 -13.58 54.96c374.65,-3.5 575.11,-63.59 903.8,-83.89 505.53,-31.23 1056.53,-214.15 1491.75,-472.3 166.89,-98.99 478.23,-290.85 507.99,-489.64l-63.22 -34.32c-46.8,-16.33 -33.24,-4.8 -72.14,-28.08 -48.78,-29.21 -73.7,-54.45 -80.89,-121.98 369.49,-130.53 712.33,-331.04 987.15,-599.87 146.04,-142.87 245.57,-261.17 369.57,-430.91 357.3,-489.1 461.31,-1240.83 564.34,-1835.8 51.13,-295.23 57.04,-1060.05 -73.23,-1341.33 -16.97,-36.66 -21.05,-43.02 -44.91,-61.71 4.91,47.32 -2.39,44.58 -34.97,82.3l-169.52 173.57c-167.52,157.38 -245.23,285.74 -466.11,473.75l-260.23 195.07 -26.88 -119.99z"/>
   <path fill="#050506" d="M10518.52 6781.63c3.09,-1.88 7.84,-8.01 9.55,-5.15l84.77 -22.56c103.51,-7.1 208.87,13.62 308.39,50.95 122.41,45.93 208.96,106.98 274.13,195.76 79.71,108.61 101.08,186.14 142.62,325.21 40.6,135.91 41.41,166.74 57.86,286.6 2.4,17.5 4.55,35.61 9.21,52.25 1.16,4.15 5.04,16.11 6.51,19.9 10.64,27.43 4.03,13.2 14.18,27.91 58,-34.53 80.61,-145.68 99.52,-207.66 6.78,-22.22 3.73,-17.27 12.98,-36.79l27.17 -42.2c214.91,-7.43 225.4,115.83 645.06,-201.09 156.4,-118.11 301.53,-312.92 385.37,-501.72 47.48,-106.91 76.32,-200.22 114.98,-315.86 106.73,-319.22 167.29,-339.35 145.3,-741.78 -9.13,-167.09 -40.2,-229.83 -72.68,-372.91 -56.37,-119.76 -19.35,-98.27 -129.43,-258.44 -327.55,-476.57 -882.09,-611.06 -1423.18,-413.59 -644.67,235.26 -1122.21,891.12 -1246.24,1576.59 -45.42,251.01 -118.38,920.29 6.39,1094.94 38.82,-28.48 237.07,-455.91 527.54,-510.36z"/>
   <path fill="#F3BB02" d="M7830.38 8847.9l38.63 2.98 -0.49 87.21c42.25,-19.4 115.59,1.61 153.05,5.59 115.6,12.27 302.81,-9.77 402.31,15.39 64.38,16.28 121.69,19.74 190.27,27.97 218.18,26.17 337.87,93.46 483.9,136.9 65.36,19.44 100.94,27.21 189.47,16.27 30.69,-153.36 43.55,-593.78 220.25,-666.15 -42.81,-10.67 -26.54,-4.33 -46.65,-36.19 -96.77,-39.88 -205.64,-70.72 -304.11,-108.93 -165.02,-64.02 -464.64,-153 -638.57,-199.3 -77.25,-20.56 -300.78,-42.61 -257.55,-143.78 13.09,-15.91 37.02,-15.86 54.07,-17.21l165.16 19.46c126.96,14.75 512.3,139.01 558.24,128.05 189.58,28.47 89.66,5 126.45,-64.99 55.39,-105.41 258.24,-5.69 319.82,37.38 30.19,21.11 99.69,71.24 138.13,84.95 25.89,-44.58 45.82,-181.92 45.97,-225.76 0.15,-46.85 -6.38,-26.72 -23.41,-77.01 -47.91,-5.29 -42.95,-12.42 -86.94,-17.73 -361.52,-43.6 -817.94,-72.88 -1188.32,-100.22 -141.18,-10.42 -275.84,-36.7 -411.14,-53.59 -557.86,-69.67 -1094.74,-150.54 -1660.38,-208.03 -286.26,-29.1 -572.74,-16.07 -852.24,-75.66 -212.12,-45.21 -613.09,-133.82 -819.43,-53.28 -246.77,96.32 -160.32,495.89 -52.28,660.4 245.34,373.59 455.75,247.69 607.76,334.72 -27.05,71.67 -54.97,64.56 -87.39,123.16 28.39,16.3 274.13,-9.5 350.48,-10.76 140,-2.32 251.5,-0.61 382.52,14.19 338.13,38.2 369.5,55.75 673.07,111.28 354.75,64.9 631.22,93.18 1002.85,177.22 76.05,17.2 273.76,78.87 326.5,75.47z"/>
   <path fill="#050506" d="M6932.58 5391.37c-42.7,183.24 -144.22,394.7 -163,680.29 -6.96,105.78 14.52,170.46 13.11,254.16 -11.47,28.48 -160.52,102.28 -221.97,200.77 -24,38.47 -21.66,49.64 -54.54,76.33 -3.88,40.22 -18.22,54.25 -25.64,97.58 30.21,-7.05 57.79,-43.32 160.42,-81.64 193.48,-72.26 434.22,-175.4 652.27,-85.38 294.05,121.4 240.94,437.9 296.43,758.39 84.91,5.74 301.36,-57.97 383.75,-76.91 138,-31.73 234.69,-57.31 338.83,-130.04 187.85,-131.2 361.44,-282.05 487.87,-439.27 255.76,-318.04 488.81,-911.13 319.1,-1429.06 -75.7,-231.04 -185.66,-424.52 -377.95,-549.15 -187.81,-121.73 -512.7,-155.59 -776.52,-101.35 -383.99,78.94 -635.14,253.18 -863.99,532.24 -43.68,53.27 -64.61,85.68 -91.66,135.45 -22.92,42.16 -61.05,134.73 -76.51,157.59z"/>
   <path fill="#FDEC51" d="M4283.85 11615.22l-82.72 -19.54c-1.25,1.67 -2.48,4.78 -2.93,5.53 -16.53,27.9 -137.12,147.02 -196.25,328.83 -43.42,133.54 49.95,340.63 87.24,448.9 114.51,332.49 448.23,715.42 742.58,909.51 251.79,166.03 309.38,174.61 568.27,256.03 164.17,51.62 264.72,82.39 437.05,110.93 1.82,0.3 223.97,50.36 225.25,34.01l18.74 -88.13c72.18,-240.03 101.45,-345.11 225.35,-549.47 28.65,-47.26 90,-113.36 105.86,-163.21 -536.89,47.12 -825.93,-352.34 -960.99,-805.25 -150.29,-503.93 -294.55,-847.55 -657.05,-1106.51 -285.8,-204.18 -941.2,-368.45 -1367.53,-395.49 -319.05,-20.24 -518.55,12.72 -782.89,105.06 -88.46,30.9 -225.99,82.35 -303.22,139.93 -59.32,44.22 -180.62,185.38 -153.77,280.11 224.19,12.86 526.2,-50.31 750.27,-11.69 133.06,22.93 1123.06,242.68 1280.92,292.67 132.08,41.82 471.66,166.04 480.31,324.97 -121.29,88.89 -245.46,-90.35 -414.49,-97.19z"/>
   <path fill="#FBFEFD" d="M10116.04 6660.39c158.41,-43.85 276.94,-132.92 471.2,-140.06 357.58,-13.13 636.83,98.69 814.94,401.12 146.77,249.24 99.03,384.93 163.23,464.71 106.48,-22.39 229.58,-118.92 324.52,-177.5 308.67,-190.44 512.42,-537.86 629.39,-891.25 74.74,-225.78 128.69,-654.11 65.26,-909.63 -65.2,-262.67 -256.97,-508.06 -414.69,-599.97 -233.78,-136.21 -623.28,-90 -853.58,-0.85 -296.01,114.58 -415.26,190.01 -616.83,398.84 -328.5,340.34 -541.71,981.61 -583.44,1454.59z"/>
   <path fill="#050506" d="M3298.12 5609.44c-294.43,49.83 -576.05,53.75 -599.97,538.1 -8.79,177.89 12.58,350.31 101.16,462.44 166.13,210.31 588.99,131 799.8,-86.56 394.17,-406.79 293.58,-1014.6 -300.99,-913.98z"/>
   <path fill="#050506" d="M3433.39 3392.8c1.03,512.32 -428.08,980.05 -542.79,1381.68 -32,112.03 -88.85,466.33 -22.66,574.04 122.17,7.8 247.66,-37.03 350.25,-69.09 125.55,-39.25 226.81,-47.91 356.9,-75.41 61.72,-449.72 452.23,-992.77 506.83,-1393.7 196.43,-478.19 289.12,-1347.88 -109.24,-1623.91 -252.35,-247.51 -609.82,-281.36 -1029.9,-201.49 -348.79,66.3 -603.47,228.63 -824.1,442.86 -221.05,214.65 -438.73,606.03 -209.82,882.51 130.35,157.44 430.05,347.42 640.49,157.26 53.82,-48.62 108.71,-118.62 161.93,-167.48 191.8,-176.06 720.96,-481.42 722.11,92.73z"/>
   <path fill="#E88705" stroke="#E88705" stroke-width="7.62" stroke-miterlimit="22.9256" d="M9038.36 8116.16c33.99,36.45 -9.95,-1.08 28.47,19.97 5.42,2.97 23.5,10.25 29.81,12.63 148.05,55.91 616.02,145.8 634.76,314.65 -123.13,7.35 -165.02,-2.05 -270.28,-25.54 20.11,31.86 3.84,25.52 46.65,36.19 -176.7,72.37 -189.56,512.79 -220.25,666.15 -88.53,10.94 -124.11,3.17 -189.47,-16.27 -146.03,-43.44 -265.72,-110.73 -483.9,-136.9 -68.58,-8.23 -125.89,-11.69 -190.27,-27.97 -99.5,-25.16 -286.71,-3.12 -402.31,-15.39 -37.46,-3.98 -110.8,-24.99 -153.05,-5.59l0.49 -87.21 -38.63 -2.98c9.4,16.15 2.15,18.76 13.12,30.02l-36.35 10.27c10.94,32.24 -3.31,15.44 -58.09,27.86 -26.27,5.95 -59.32,13.99 -96.7,17.28 22.93,16.59 51.18,30.69 67.41,59.16 -186.39,-1.37 -135.42,-42.06 -375.93,19.37 -156.71,40.02 -265.14,27.36 -406.83,100.37 -58.52,30.15 -59.06,12.86 -138.76,26.31 -198.96,33.57 -336.48,113.39 -508.1,175.88l-198.97 69.06c-63.28,36.08 -15.86,44.44 -112.67,63.2 -196.05,37.97 -472.05,282.63 -761.18,372.26 -48.77,15.11 -149.16,9.96 -187.76,38.44 226.22,14.45 513.96,-24.54 584.96,-16.24 145.59,-20.39 295.84,-89.06 420.8,-131.81 228.7,-78.25 450.48,-130.6 644.09,-192.8 584.62,-187.8 1078.09,-244.94 1709.35,-199.56 314.53,22.61 683.26,65.8 959.83,153.21 140.23,44.32 290.1,65.39 431.13,114.13 625.58,216.21 949.47,325.94 861.9,-479.36 -50.24,-462.02 -220.36,-847.61 -591.66,-1074.28 -62.59,-38.21 -124.99,-67.04 -186.23,-91.72 -72.83,-29.35 -152.68,-39.17 -218.42,-68.22 17.03,50.29 23.56,30.16 23.41,77.01 -0.15,43.84 -20.08,181.18 -45.97,225.76 -38.44,-13.71 -107.94,-63.84 -138.13,-84.95 -61.58,-43.07 -264.43,-142.79 -319.82,-37.38 -36.79,69.99 63.13,93.46 -126.45,64.99z"/>
   <path fill="#D5AA19" d="M2563.89 11429.96l66.67 -4.72c-15.34,128.75 5.25,200.47 12.7,318.28 29.61,4.96 60.71,14.43 94.34,24.88 35.24,10.95 86.84,12.06 22,29.81 11.89,8.67 9.4,8.36 31.36,16.25 13.15,4.73 18.07,5.46 31.1,8.22 24.5,5.19 49.93,8.85 73.5,13.08l432.33 75.88c181.97,36.66 429.01,55.84 622.96,49.6 15.63,160.69 -139.65,95.57 -233.05,141.73 -34.48,77.43 -59.06,421.96 -46.69,529.89 56.4,491.99 213.6,876.56 546.8,1243.89 203.8,224.68 400.12,345.9 705.92,475.45 342.1,144.94 613.56,165.51 1040,172.77 3.34,-186.39 18.02,-294.29 37.68,-470.54 17.25,-154.72 69.12,-303.26 79.57,-453.14l-18.74 88.13c-1.28,16.35 -223.43,-33.71 -225.25,-34.01 -172.33,-28.54 -272.88,-59.31 -437.05,-110.93 -258.89,-81.42 -316.48,-90 -568.27,-256.03 -294.35,-194.09 -628.07,-577.02 -742.58,-909.51 -37.29,-108.27 -130.66,-315.36 -87.24,-448.9 59.13,-181.81 179.72,-300.93 196.25,-328.83 0.45,-0.75 1.68,-3.86 2.93,-5.53l82.72 19.54c-69.61,-80.86 -629.52,-166.14 -787.72,-192.09 -210.6,-34.55 -482.22,-28.44 -704.44,-26.03 -59.33,0.64 -186.07,-5.11 -227.8,32.86z"/>
   <path fill="#FBFEFD" d="M6998.95 6322.6c89.66,-13.69 153.33,-66.08 333,-2.59 187.12,66.13 346.48,206.56 416.42,396.52 52.33,142.13 20.48,225.68 24.18,369.46 97.84,-71.45 292.32,-98.96 571.1,-300.35 152.7,-110.3 336.39,-299.14 427,-460.61 221.19,-394.14 326.12,-966.41 -26.37,-1330.53 -156.32,-161.48 -354.79,-234.95 -648.48,-210.25 -232.31,19.54 -481.91,130 -634.25,256.34 -318.14,263.84 -542.21,805.02 -462.6,1282.01z"/>
   <path fill="#D5AA19" stroke="#D5AA19" stroke-width="7.62" stroke-miterlimit="22.9256" d="M13249.89 11932.31l55.02 -11.1c1.89,3.13 3.56,7.53 4.65,9.94l20.85 47.59c3.34,7.57 20.75,42.39 25.06,49.24 14.5,23.03 40.64,54.35 51.6,84.22 60.97,166.1 -149.04,255.35 -118.99,433.79 70.58,419.14 -28.15,779.78 -276.58,1079.21 -102.43,123.46 -173.44,178.72 -298.17,273.98 -92.77,70.86 -425.36,272.53 -547.53,317.09 -69.12,25.2 -129.08,43.45 -209.4,69.6 -75.03,24.44 -141.81,40.13 -217.61,60.15 -99.68,26.32 -161.92,5.88 -216.17,69.6 119.11,1.8 186.31,254.81 626.28,275.27 616.84,28.69 1401.25,-584.49 1676.94,-1065.48 121.62,-212.19 190.03,-409.83 247.52,-656.03 55.05,-235.79 82.81,-577.98 30.99,-827.08 -50.49,-242.7 -133.37,-485.98 -241.12,-673.51 -79.18,-137.79 -289.83,-473.22 -433.37,-485.4 -41.21,99.37 -96.75,192.4 -143.47,275.94 -29.21,52.24 -47.33,88.96 -82.75,132.49 -25.68,31.55 -79.82,88.12 -98.13,127.09 53.9,77.86 433.42,170.28 213.01,368.02l-58.76 39.27c-2.48,1.53 -6.8,3.75 -9.87,6.11z"/>
   <path fill="#FCFDA5" d="M8970.6 14393.95c-108.15,-58.21 -14.08,-3.84 -134.1,-183.81 -20.93,-31.39 -38.44,-57.33 -65.66,-87.5 -41.63,-46.17 -23.57,-53.99 -102.47,-63.04 -13.2,-148.35 -236.52,-220.15 -273.9,-247.1 -95.89,-69.13 -59.36,-53.61 -205.21,-111.81 -25.26,-10.08 -42.3,-17.93 -69.17,-30.88 -71.37,-34.4 -197,-38.05 -275.15,-44.65 -97.56,-8.25 -197.1,8.83 -288.1,28.23 -86.96,18.54 -31.85,5.26 -70.32,47.33l-32.51 27.83c-76.37,53.18 -124.57,8.63 -174.71,69.14 -123.67,149.21 -82.29,91.51 -97.97,234.12 -17.47,158.95 -9.17,416.15 62.43,551.9 26.97,51.13 40.56,107.02 63.92,155.38l83.01 131.75c90.71,143.63 32.37,98.15 147.44,158.18 57.75,30.13 15.28,2.12 45.63,63.36 23.22,46.89 164.75,126.08 220.81,163.5l144.17 95.13c36.72,23.44 103.39,46.15 150.94,62.44 138.06,47.29 502.88,64.99 638.54,-19.06 91.28,-56.56 93.96,-14.67 176.49,-124.98 113.13,-151.23 125.81,-292.72 119.07,-513.5 -1.75,-57.66 -23.19,-116.47 -36.06,-175.21 -13.37,-61 -24.96,-114.36 -27.12,-186.75z"/>
   <path fill="#F3BB02" d="M5614.53 9841.14c-71,-8.3 -358.74,30.69 -584.96,16.24 38.6,-28.48 138.99,-23.33 187.76,-38.44 289.13,-89.63 565.13,-334.29 761.18,-372.26 96.81,-18.76 49.39,-27.12 112.67,-63.2l198.97 -69.06c171.62,-62.49 309.14,-142.31 508.1,-175.88 79.7,-13.45 80.24,3.84 138.76,-26.31 141.69,-73.01 250.12,-60.35 406.83,-100.37 240.51,-61.43 189.54,-20.74 375.93,-19.37 -16.23,-28.47 -44.48,-42.57 -67.41,-59.16 37.38,-3.29 70.43,-11.33 96.7,-17.28 54.78,-12.42 69.03,4.38 58.09,-27.86 -225.25,22.69 -427,-33.54 -623.45,-54.89 -794.56,-86.34 -1691.37,-416.69 -2299.74,157.02 -273.32,257.74 -288.34,756.28 115.37,881.58 106.43,33.03 528.45,17.32 615.2,-30.76z"/>
   <path fill="#E88705" stroke="#E88705" stroke-width="7.62" stroke-miterlimit="22.9256" d="M11003.99 17667.67c66.41,5.71 105.17,-14.95 181.25,-9.79 148.81,10.1 81.09,-55.69 202.41,-81.24 57.95,123.23 14.55,42.82 94.18,120.22l310.1 354.07c-2.64,1.42 -6.85,3.85 -10.12,5.57l-51.27 25.83c48.47,-1.97 121.19,-14.13 125.36,40.63 3.16,41.55 6.33,23.49 -76.97,72.02 -74.25,43.26 -125.55,78.49 -188.99,116.34 -57.45,34.28 -135.47,75.36 -170.47,133.27 -33.21,54.94 -88.67,157.14 -58.59,223.86 68.22,77.23 319.62,-117.09 532.69,-182.08 85.86,-26.19 178.14,-62.92 280.1,-86.71 114.82,-26.79 194.6,-36.5 317.69,-50.87 218.63,-25.53 444.8,-41.42 663.04,-67.95 130.71,-15.88 561.62,-74.24 640.31,-113.46 -108.89,-48.32 -316.07,-92.37 -450.1,-124.41 -282.29,-67.48 -650.38,-157.05 -926.16,-240.07l-460.37 -125c-42.6,-171.75 -2.5,-423.96 35.84,-597.2 9.66,-43.65 37.35,-137.32 35.19,-184.97l-762.31 89.15c20.46,125.22 119.48,449.48 112.96,545.27 -181.1,104.56 0.28,87.4 -267.14,115.3l-98.77 17.9c-2.51,0.87 -6.83,2.4 -9.86,4.32z"/>
   <path fill="#E88705" stroke="#E88705" stroke-width="7.62" stroke-miterlimit="22.9256" d="M8577.11 17896.72c88.95,-6.71 133.27,-13.28 203.39,25.62 66.27,36.76 129.32,58.26 140.79,84.75l-1283.32 376.54c-140.58,30.89 -329.04,53.14 -435.62,112.74 559.1,86.92 1326.83,19.6 1813.9,-115.55 118.93,-33 280.49,-61.9 394.51,-104.75l354.39 -152.41c91.12,-46.15 219.19,-162.9 212.15,-280.97 -5.39,-90.38 -116.86,-85.32 -225.77,-282.53l-484.31 1.2c-32.13,-39.41 -111.83,-267.13 -144.65,-349.81l-26.66 -52.15c-37.71,180.4 11.67,518.95 -69.91,666.1 -140.13,9.97 -213.26,-55.63 -389.36,-52.74l-4.84 58.87c39.19,22.25 21.65,3.98 74.47,25.37 14.78,5.98 8.55,36.43 18.19,8.22 0.56,-1.64 3.32,2.12 5.2,2.27 -48.9,0 -78.43,-5.94 -121.53,10.34 -27.14,10.25 -19.99,9.42 -31.02,18.89z"/>
   <path fill="#F3BB02" d="M8577.11 17896.72c11.03,-9.47 3.88,-8.64 31.02,-18.89 43.1,-16.28 72.63,-10.34 121.53,-10.34 -1.88,-0.15 -4.64,-3.91 -5.2,-2.27 -9.64,28.21 -3.41,-2.24 -18.19,-8.22 -52.82,-21.39 -35.28,-3.12 -74.47,-25.37l4.84 -58.87c176.1,-2.89 249.23,62.71 389.36,52.74 81.58,-147.15 32.2,-485.7 69.91,-666.1l2.41 -149.53c-59.13,-3.21 -117.03,1.37 -174.52,-4.63 -56.16,-5.86 -83.74,-24.45 -145.15,-19.83 1.27,43.59 63.74,198.24 79.9,251.02 23.59,77.06 66.5,201.27 65.63,285.27 -206.8,11.52 -458.05,80.26 -661.23,113.59 -454.01,74.48 -924.14,154.82 -1378.39,199.77 -107.16,10.6 -646.4,61.27 -700.2,83.16 32.93,56.36 392.41,61.03 541.63,281.49 44.27,65.4 43.43,138.07 55.16,222.96 42.88,-6.51 150.64,-65.33 198.82,-87.89 64.52,-30.22 132.27,-56.17 212.1,-77.17 239.95,-63.11 1317.19,-315.24 1385.04,-360.89z"/>
   <path fill="#F3BB02" d="M11003.99 17667.67c-80.11,-22.18 -247.54,24.14 -318.96,42.72 -115.25,29.97 -179.15,69.49 -276.7,104.68 33.34,166.03 399.41,461.2 546.85,586.53 48.95,41.6 148.48,125.04 214.47,160.9 76.85,-182.66 23.18,-195.52 204.19,-315.39 99.15,-65.65 222.59,-148.33 356.7,-164.78l51.27 -25.83c3.27,-1.72 7.48,-4.15 10.12,-5.57l-310.1 -354.07c-79.63,-77.4 -36.23,3.01 -94.18,-120.22 -121.32,25.55 -53.6,91.34 -202.41,81.24 -76.08,-5.16 -114.84,15.5 -181.25,9.79z"/>
   <path fill="#D5AA19" stroke="#D5AA19" stroke-width="17.64" stroke-miterlimit="22.9256" d="M7028.13 16013.5c45.38,62.59 171.12,135.85 237.15,174.86 646.1,381.62 1616.25,489.67 2355.84,526.55 -49.73,-34.38 -314.31,-79.2 -401.67,-99.58 -240.9,-56.2 -517.42,-152.45 -763.31,-225.32 -102.69,-30.43 -593.47,-244.67 -689.5,-298.91 -102.42,-57.86 -209.67,-118.53 -324.88,-169.25 -129.84,-57.17 -308.19,-121.12 -399.61,-222.64l-52.64 -43.97c-49.09,-51.92 -36.12,-111.16 -125.53,-115.44 -1.46,49.82 43.14,164.67 63.93,210.52l40.59 99.94c19.37,35.39 27.82,-33.99 11.12,90.07 42.17,23.74 49.71,38.68 80.19,58.8 -15.73,18.2 24.56,16.63 -31.68,14.37z"/>
   <path fill="#FBFEFD" d="M9445.32 17288.95c294.99,11.1 277.05,-124.87 612.27,207.52 53.32,52.87 85.06,104.33 136.54,154.83 45.89,-40.04 35.05,-100.62 142.14,-161.92 115.65,-66.21 626.59,-123.59 778.67,-132.85 -3.79,-34.23 -87.59,-231.24 -110.02,-302.04 -319.78,16.19 -430.75,42.03 -795.92,13.22 -256.18,-20.22 -557.94,-34.14 -821.98,-29.37l58.3 250.61z"/>
   <path fill="#FBFA7C" d="M14372.23 12046.93l26.88 119.99 260.23 -195.07c220.88,-188.01 298.59,-316.37 466.11,-473.75l169.52 -173.57c32.58,-37.72 39.88,-34.98 34.97,-82.3 -41.24,-102.47 -59.82,-41.47 -250.83,7.14 -96.35,24.52 -216.25,48.73 -316.12,67.31 -236.62,44 -366.41,103.8 -519.64,240.32 -21.63,42.53 91.51,301.49 101.51,355.74 9.08,49.25 9.45,87.26 27.37,134.19z"/>
   <path fill="black" d="M11540.94 5588.81c-345.67,132.42 -318.67,773.7 225.11,647.67 96.9,-22.46 145.15,-66.74 177.49,-156.67 25.93,-72.11 70.01,-190.81 52.22,-284.07 -30.79,-161.32 -281.63,-273.27 -454.82,-206.93z"/>
   <path fill="#E6C837" d="M6506.18 6602.92c32.88,-26.69 30.54,-37.86 54.54,-76.33 61.45,-98.49 210.5,-172.29 221.97,-200.77 1.41,-83.7 -20.07,-148.38 -13.11,-254.16 18.78,-285.59 120.3,-497.05 163,-680.29 -4.73,4.09 -14.29,-0.12 -16.8,8.34l-22.82 20.52c8.14,-86.75 17.72,-74.94 46.13,-137.38 35.72,-78.48 -8.47,-33.03 -8.71,-137.86 26.35,-20.51 40.43,-13.33 60.94,-25.39 -13.07,-6.78 -32.35,-11.06 -34.35,-12.34 -31.31,-20.03 -12.42,1.59 -30.19,-37.7 -17.31,-38.26 6.84,-39.41 -41.3,-59.46 -9.25,20.72 -3.62,16.27 -9.75,36.72l-20.92 53.32c-47.9,-16.98 -14.72,14.08 -47.4,-40.69 -30.75,59.65 -45.44,75.87 -71.93,152.73 -22.11,64.18 -39.89,114.92 -62.79,181.68 -42.68,124.39 -81.24,231.91 -103.06,386.13 -11.38,80.4 -17.3,129.2 -36.1,204.15l-43.31 443.64c-5,251.56 10.09,80.49 15.96,175.14z"/>
   <path fill="black" d="M7868.39 5340.46c-144.32,48.49 -245.11,207.46 -211.24,385.69 15.99,84.12 47.73,154.1 112.81,179.47 226.66,88.37 488.39,-24.8 491.94,-380.03 1.81,-181.66 -238.79,-237.13 -393.51,-185.13z"/>
   <path fill="#D5AA19" d="M12826.43 12650.66c90.7,-196.12 228.15,-243.82 107.1,-680.68 -31.69,-114.39 -132.12,-358.48 -191.28,-459.64l-63.97 -100.57c-19.88,-25.74 -11.6,-17.3 -32.42,-35.19 -7.11,52.46 -13.33,43.52 -27.62,81.62l-65.39 238.96c-60.42,173.81 6.41,79.34 112.81,248.46 153.76,244.38 91.95,385.83 118.97,692.96l41.8 14.08z"/>
   <path fill="#050506" d="M13410.38 15032.65c120.1,2.1 977.56,-458.19 1184.31,-674.87 67.99,-71.26 250.25,-264.48 263.38,-381.1 -105.83,10.35 -214.94,153.78 -364.75,267.82 -118.77,90.4 -251.15,145.26 -384,238.11 -140.44,98.15 -615.35,402.09 -698.94,550.04z"/>
   <path fill="none" d="M1710.7 4132.06c74.69,163.31 141.3,178.7 126.03,269.48 -24.87,147.8 -59.91,197.83 37.75,326.89 34.89,46.1 63.27,87.38 92.76,112.08 54.69,45.78 95.85,11.49 86.46,-57.4 -7.78,-57.12 -43.66,-106.33 -34.64,-155.59 12.93,-70.61 199.06,-192.75 -14.34,-422.27 -170.27,-183.13 6.59,-187.56 -71.14,-284.42 -41.98,-52.31 -202.51,-109.02 -273.61,-134.79"/>
   <path fill="#050506" d="M9461.12 8437.87c105.26,23.49 147.15,32.89 270.28,25.54 -18.74,-168.85 -486.71,-258.74 -634.76,-314.65 -6.31,-2.38 -24.39,-9.66 -29.81,-12.63 -38.42,-21.05 5.52,16.48 -28.47,-19.97 -45.94,10.96 -431.28,-113.3 -558.24,-128.05l-165.16 -19.46c-17.05,1.35 -40.98,1.3 -54.07,17.21 -43.23,101.17 180.3,123.22 257.55,143.78 173.93,46.3 473.55,135.28 638.57,199.3 98.47,38.21 207.34,69.05 304.11,108.93z"/>
   <path fill="#050506" d="M5467.23 7608.22c13.36,31.56 -26.58,17.13 101.45,55.92 259.24,78.54 310.49,70.39 634.75,188.94 90.89,33.24 164.66,48.06 258.89,73.16 80.16,21.35 159.29,56.5 243.03,83.84 78.92,25.77 182.6,45.64 263.11,69.34l494.95 115.6c86.49,-11.05 -55.58,22.7 31.57,-10.26 2.51,-0.95 6.67,-3.01 9.59,-5.17 -17.61,-62.8 -86.13,-55.2 -217.86,-100.85 -76.53,-26.51 -160.49,-53.88 -246.63,-84.61 -176.85,-63.08 -316.14,-127.56 -503.37,-154.67 -98.87,-14.32 -627.28,-172.88 -779.53,-211.63 -52.83,-13.44 -188.61,-40.81 -247.74,-33.07 -4.33,0.56 -7.44,1.16 -11.45,1.97l-20.89 7.05c-2.56,0.83 -6.81,2.53 -9.87,4.44z"/>
   <path fill="#D5AA19" d="M10976.62 2864.04c-10.19,-108.36 -155.77,-411.92 -316.52,-494.63 -50.95,-26.21 -181.87,-62.44 -228.9,-9.57 -74.6,83.85 78.42,321.26 122.28,369.37 99.86,109.53 241.26,136.05 423.14,134.83z"/>
   <path fill="#050506" d="M10502.24 9565.55c11.56,-175.38 -275.03,-328.4 -407.97,-398.02 -150.45,-78.79 -373.17,-121.41 -451.41,-158.27 -63.36,-29.86 -80.25,-45.18 -156.55,-40.89 -3.9,93.82 55.59,103.35 208.12,180.49 86.78,43.88 176.24,83.76 268.98,137.84 112.55,65.64 385.56,272.58 538.83,278.85z"/>
   <path fill="#FBFA7C" d="M2759.6 11798.21c64.84,-17.75 13.24,-18.86 -22,-29.81 -33.63,-10.45 -64.73,-19.92 -94.34,-24.88 -7.45,-117.81 -28.04,-189.53 -12.7,-318.28l-66.67 4.72c-75.54,-11.09 -187.11,27.26 -228.31,65.04 -39.44,36.16 -131,125.56 -69,192.59 34.75,37.58 434.14,118.76 493.02,110.62z"/>
   <path fill="#050506" d="M6557.64 7729.19l1 56.88c27.27,11.27 218.65,35.89 261.98,44.88 162.14,33.65 626.69,211.69 726.62,203.93 20.82,-54.16 24.3,-47.01 18.62,-109.21l-478.81 -132.1c-81.13,-24.2 -456.64,-116.88 -529.41,-64.38z"/>
   <path fill="#050506" d="M14900.34 12830.16c148.63,-10.57 102.98,-130.42 93.97,-246.51 -8.79,-113.32 68.94,-141.79 30.44,-309.52 -27.87,25.13 -116.57,184.02 -135.02,231.02 -44.96,114.54 -36.9,231.6 10.61,325.01z"/>
   <path fill="#050506" d="M8689.9 12450.27c-21.54,-38.56 -362.53,-166.7 -451.25,-181.15 5.07,85.13 93.17,129.32 156.68,159.43 94.18,44.63 181.2,35.66 294.57,21.72z"/>
   <path fill="#050506" d="M16681.36 6323.27c-288.68,-76.38 -546.72,-189.26 -768.77,241.86 -81.56,158.33 -133.4,324.16 -99.11,462.88 64.29,260.18 482.11,362.82 764.01,251.9 527.1,-207.4 686.84,-802.4 103.87,-956.64z"/>
   <path fill="#050506" d="M17721.1 4360.94c-210.9,466.89 -795.01,715.33 -1065.53,1033.58 -75.46,88.78 -273.73,387.86 -258,513.3 108.01,57.62 240.81,68.69 347.48,81.92 130.54,16.18 226.32,50.16 356.14,78.92 242.15,-383.95 822.26,-716.93 1037.76,-1059.4 376.58,-354.17 820.59,-1107.7 572.02,-1523.75 -127.43,-329.71 -438.91,-508.34 -854.42,-609.32 -344.99,-83.86 -644,-41.36 -933.47,62.46 -290.02,104.04 -650.05,370.38 -555.95,716.77 53.58,197.25 247.9,494.16 518.14,408.03 69.11,-22.01 148.03,-63.05 216.69,-85.53 247.44,-81 855.5,-140.22 619.14,383.02z"/>
  </g>
 </g>
</svg>