<?xml version="1.0" encoding="UTF-8"?>
<!DOCTYPE svg PUBLIC "-//W3C//DTD SVG 1.1//EN" "http://www.w3.org/Graphics/SVG/1.1/DTD/svg11.dtd">
<!-- Creator: CorelDRAW 2021 (64-Bit Keine kommerzielle Nutzung) -->
<svg xmlns="http://www.w3.org/2000/svg" xml:space="preserve" width="80mm" height="80mm" version="1.1" style="shape-rendering:geometricPrecision; text-rendering:geometricPrecision; image-rendering:optimizeQuality; fill-rule:evenodd; clip-rule:evenodd"
viewBox="0 0 8000 8000"
 xmlns:xlink="http://www.w3.org/1999/xlink"
 xmlns:xodm="http://www.corel.com/coreldraw/odm/2003">
 <defs>
  <style type="text/css">
   <![CDATA[
    .str1 {stroke:white;stroke-width:70.56;stroke-miterlimit:22.9256}
    .str0 {stroke:black;stroke-width:20;stroke-miterlimit:22.9256}
    .fil3 {fill:#005144}
    .fil2 {fill:#005144}
    .fil5 {fill:#00D1B2}
    .fil1 {fill:#00D384}
    .fil4 {fill:#7BD3AC}
    .fil0 {fill:white}
    .fil6 {fill:#009E86;fill-rule:nonzero}
   ]]>
  </style>
 </defs>
 <g id="Ebene_x0020_1">
  <metadata id="CorelCorpID_0Corel-Layer"/>
  <g id="_2648899334224">
   <circle class="fil0 str0" cx="3978.33" cy="4021.67" r="3471.51"/>
   <path class="fil1" d="M4214.87 5800.82c295.23,-51.12 1541.07,-656.63 1767.85,-594.41 271.64,74.51 -1308.83,1088.34 -1812.68,1187.97 -288.62,57.09 153.81,179.11 297.8,176.98 988.43,-14.59 1861.12,-918.66 2229.82,-1771.78 -713.65,-240.24 -2397.47,31.34 -2482.79,1001.24z"/>
   <path class="fil2" d="M4078.44 6475.89c92.13,128.8 1088.81,-507.67 1496.05,-802.56 407.24,-294.9 416.23,-358.15 474.18,-427.89 -121.27,-295.34 -1513.03,499.83 -1833.8,555.38 12.31,-140.02 200.83,-380.01 288.2,-503.24 32.21,-45.45 173.97,-168.48 125.92,-168.38 -380.42,174.91 -558.37,526.96 -676.55,750.18 -90.68,171.28 72.21,378.02 126,596.51z"/>
   <path class="fil1" d="M4422.72 3615.28c-9.73,85.76 -45.57,333.32 -9.98,399.52 104.99,-49.59 1009.66,-1551.96 1160.51,-1455.17 159.63,205.63 -1029.12,2312.37 -75.58,1609.87 497.67,-366.72 720.32,-1438.23 701.24,-2029.52 -948.58,-134.62 -1673.32,568.48 -1776.19,1475.3z"/>
   <path class="fil3" d="M4800.77 2679.95c-294.32,318.56 -487.92,505.41 -630.87,924.09 -96.5,282.62 -149.44,648.36 -170.41,949.76 -6.24,89.78 5.06,300.1 -12.23,366.23 30.43,-4.6 80.98,-63.1 123.4,-100 188.35,-163.84 463.09,-300.3 699.55,-384.71l404.73 -123.06c-213.61,-182.58 230.62,-949.46 317.45,-1279.68 19.12,-72.71 77.86,-469.86 44.22,-513.2 -38.14,-24.47 -226.74,177.17 -244.68,194.67 -359.91,409.38 -547.45,759.58 -845.39,1214.83 -16.76,22.38 -55.43,77.25 -73.8,85.92 -63.97,-118.99 84.63,-597.65 122.28,-746.61 53.23,-210.65 156.03,-361.78 263.57,-548.21 10.35,-22.37 26.85,-29.38 2.18,-40.03z"/>
   <path class="fil4" d="M1088.72 3760.71c16.68,42.78 8.19,353.29 7.77,428.04 663.3,70.23 769.27,-138.37 1458.11,218.68 145.47,75.4 773.89,100.89 965.16,73.8 9.56,-157.37 66.47,-468.77 61.1,-590l-466.67 7.31c-389.88,4.93 -628.86,-43.49 -1007.35,-116.24 -200.81,-38.6 -922.77,-94.16 -1018.12,-21.59z"/>
   <path class="fil4" d="M2237.16 1750.86c-20.04,429.89 -87.76,482.53 278.87,479.31 611.44,0.08 1327.63,39.75 1928.19,-0.77 200.69,-224.05 434.39,-350.04 708.49,-454.65 172.02,-44.27 -1578.71,-27.4 -2172.34,-27.06 -127.64,-0.07 -662.62,-7.43 -743.21,3.17z"/>
   <path class="fil4" d="M1316.98 2638.96l1.45 391.79c309.66,9.39 685.09,-36.77 978.87,97.91 495.71,227.15 669.8,198.89 1210.37,199.94 50.36,0.1 168.94,7.13 209.78,-4.11 7.26,-138.78 150.99,-357.43 229.04,-479.64 59.68,-93.42 -1016.75,-57.14 -1186.46,-62.67 -443.47,-14.48 -903.6,-132.29 -1443.05,-143.22z"/>
   <path class="fil4" d="M1317.52 4962.82c-15.15,68.12 2.46,322.18 4.39,409.1 110.99,18.59 442.05,-10.7 588.11,-8.37 205.43,3.28 453.23,27.02 640.8,110.9 103.3,46.19 231.14,87.78 350.8,98.61 164.93,14.93 413.42,28.6 584.06,15.13 6.06,-97.77 -6.98,-437.54 -18.32,-536.39 -122.66,-8.83 -527.28,12.91 -643.5,-2.97 -182.12,-24.93 -375.03,-68.59 -552.76,-87.44 -240.56,-25.52 -443.73,-18.26 -684.05,-15.98 -70.19,0.66 -196.72,11.25 -269.53,17.41z"/>
   <path class="fil4" d="M2247.78 6619.78l1365.95 1.48c-6.16,-71.99 -44.38,-188.88 -65.03,-254.87 -15.48,-49.51 -34.51,-214.05 -40.4,-276.02 -107.08,-8.38 -468.99,23.72 -653.85,23.72 -133.16,0 -338.89,-6.81 -464.64,-39.88 -29.31,-7.71 -111.43,-31.16 -141.56,-33.22l-0.47 578.79z"/>
   <rect class="fil5" x="3760.73" y="1032.94" width="400.86" height="400.86"/>
   <rect class="fil5" x="6480.76" y="3588.83" width="400.86" height="400.86"/>
   <path class="fil6 str1" d="M7806.29 4021.67c0,-2113.58 -1714.38,-3827.96 -3827.96,-3827.96 -2113.57,0 -3827.96,1714.38 -3827.96,3827.96 0,2113.57 1714.39,3827.96 3827.96,3827.96 2113.58,0 3827.96,-1714.39 3827.96,-3827.96zm-395.34 0c0,1895.29 -1537.33,3432.63 -3432.62,3432.63 -1895.29,0 -3432.62,-1537.34 -3432.62,-3432.63 0,-1895.29 1537.33,-3432.63 3432.62,-3432.63 1895.29,0 3432.62,1537.34 3432.62,3432.63z"/>
  </g>
 </g>
</svg>
