<?xml version="1.0" encoding="UTF-8"?>
<!DOCTYPE svg PUBLIC "-//W3C//DTD SVG 1.1//EN" "http://www.w3.org/Graphics/SVG/1.1/DTD/svg11.dtd">
<!-- Creator: CorelDRAW 2021 (64-Bit Keine kommerzielle Nutzung) -->
<svg xmlns="http://www.w3.org/2000/svg" xml:space="preserve" width="460mm" height="90mm" version="1.1" shape-rendering="geometricPrecision" text-rendering="geometricPrecision" image-rendering="optimizeQuality" fill-rule="evenodd" clip-rule="evenodd"
viewBox="0 0 46000 9000"
 xmlns:xlink="http://www.w3.org/1999/xlink"
 xmlns:xodm="http://www.corel.com/coreldraw/odm/2003">
 <g id="Ebene_x0020_1">
  <metadata id="CorelCorpID_0Corel-Layer"/>
  <g id="_1904496137488">
   <circle fill="white" stroke="black" stroke-width="20" stroke-miterlimit="22.9256" cx="41764.66" cy="4519.34" r="3471.51"/>
   <path fill="#00D384" d="M42001.2 6298.49c295.23,-51.12 1541.07,-656.63 1767.85,-594.41 271.64,74.51 -1308.83,1088.34 -1812.68,1187.97 -288.62,57.09 153.81,179.11 297.8,176.98 988.43,-14.59 1861.12,-918.66 2229.82,-1771.78 -713.65,-240.24 -2397.47,31.34 -2482.79,1001.24z"/>
   <path fill="#005144" d="M41864.77 6973.56c92.13,128.8 1088.81,-507.67 1496.05,-802.56 407.24,-294.9 416.23,-358.15 474.18,-427.89 -121.27,-295.34 -1513.03,499.83 -1833.8,555.38 12.31,-140.02 200.83,-380.01 288.2,-503.24 32.21,-45.45 173.97,-168.48 125.92,-168.38 -380.42,174.91 -558.37,526.96 -676.55,750.18 -90.68,171.28 72.21,378.02 126,596.51z"/>
   <path fill="#00D384" d="M42209.05 4112.95c-9.73,85.76 -45.57,333.32 -9.98,399.52 104.99,-49.59 1009.66,-1551.96 1160.51,-1455.17 159.63,205.63 -1029.12,2312.37 -75.58,1609.87 497.67,-366.72 720.32,-1438.23 701.24,-2029.52 -948.58,-134.62 -1673.32,568.48 -1776.19,1475.3z"/>
   <path fill="#005144" d="M42587.1 3177.62c-294.32,318.56 -487.92,505.41 -630.87,924.09 -96.5,282.62 -149.44,648.36 -170.41,949.76 -6.24,89.78 5.06,300.1 -12.23,366.23 30.43,-4.6 80.98,-63.1 123.4,-100 188.35,-163.84 463.09,-300.3 699.55,-384.71l404.73 -123.06c-213.61,-182.58 230.62,-949.46 317.45,-1279.68 19.12,-72.71 77.86,-469.86 44.22,-513.2 -38.14,-24.47 -226.74,177.17 -244.68,194.67 -359.91,409.38 -547.45,759.58 -845.39,1214.83 -16.76,22.38 -55.43,77.25 -73.8,85.92 -63.97,-118.99 84.63,-597.65 122.28,-746.61 53.23,-210.65 156.03,-361.78 263.57,-548.21 10.35,-22.37 26.85,-29.38 2.18,-40.03z"/>
   <path fill="#7BD3AC" d="M38875.05 4258.38c16.68,42.78 8.19,353.29 7.77,428.04 663.3,70.23 769.27,-138.37 1458.11,218.68 145.47,75.4 773.89,100.89 965.16,73.8 9.56,-157.37 66.47,-468.77 61.1,-590l-466.67 7.31c-389.88,4.93 -628.86,-43.49 -1007.35,-116.24 -200.81,-38.6 -922.77,-94.16 -1018.12,-21.59z"/>
   <path fill="#7BD3AC" d="M40023.49 2248.53c-20.04,429.89 -87.76,482.53 278.87,479.31 611.44,0.08 1327.63,39.75 1928.19,-0.77 200.69,-224.05 434.39,-350.04 708.49,-454.65 172.02,-44.27 -1578.71,-27.4 -2172.34,-27.06 -127.64,-0.07 -662.62,-7.43 -743.21,3.17z"/>
   <path fill="#7BD3AC" d="M39103.31 3136.63l1.45 391.79c309.66,9.39 685.09,-36.77 978.87,97.91 495.71,227.15 669.8,198.89 1210.37,199.94 50.36,0.1 168.94,7.13 209.78,-4.11 7.26,-138.78 150.99,-357.43 229.04,-479.64 59.68,-93.42 -1016.75,-57.14 -1186.46,-62.67 -443.47,-14.48 -903.6,-132.29 -1443.05,-143.22z"/>
   <path fill="#7BD3AC" d="M39103.85 5460.49c-15.15,68.12 2.46,322.18 4.39,409.1 110.99,18.59 442.05,-10.7 588.11,-8.37 205.43,3.28 453.23,27.02 640.8,110.9 103.3,46.19 231.14,87.78 350.8,98.61 164.93,14.93 413.42,28.6 584.06,15.13 6.06,-97.77 -6.98,-437.54 -18.32,-536.39 -122.66,-8.83 -527.28,12.91 -643.5,-2.97 -182.12,-24.93 -375.03,-68.59 -552.76,-87.44 -240.56,-25.52 -443.73,-18.26 -684.05,-15.98 -70.19,0.66 -196.72,11.25 -269.53,17.41z"/>
   <path fill="#7BD3AC" d="M40034.11 7117.45l1365.95 1.48c-6.16,-71.99 -44.38,-188.88 -65.03,-254.87 -15.48,-49.51 -34.51,-214.05 -40.4,-276.02 -107.08,-8.38 -468.99,23.72 -653.85,23.72 -133.16,0 -338.89,-6.81 -464.64,-39.88 -29.31,-7.71 -111.43,-31.16 -141.56,-33.22l-0.47 578.79z"/>
   <rect fill="#00D1B2" x="41547.06" y="1530.61" width="400.86" height="400.86"/>
   <rect fill="#00D1B2" x="44267.09" y="4086.5" width="400.86" height="400.86"/>
   <path fill="#009E86" fill-rule="nonzero" stroke="white" stroke-width="70.56" stroke-miterlimit="22.9256" d="M45592.62 4519.34c0,-2113.58 -1714.38,-3827.96 -3827.96,-3827.96 -2113.57,0 -3827.96,1714.38 -3827.96,3827.96 0,2113.57 1714.39,3827.96 3827.96,3827.96 2113.58,0 3827.96,-1714.39 3827.96,-3827.96zm-395.34 0c0,1895.29 -1537.33,3432.63 -3432.62,3432.63 -1895.29,0 -3432.62,-1537.34 -3432.62,-3432.63 0,-1895.29 1537.33,-3432.63 3432.62,-3432.63 1895.29,0 3432.62,1537.34 3432.62,3432.63z"/>
  </g>
  <path fill="white" fill-rule="nonzero" d="M1141.75 3149.92c17.18,-137.5 54.14,-231.17 110.85,-281.01 56.72,-49.85 152.11,-74.77 286.17,-74.77l489.84 0c44.69,0 91.95,12.89 141.8,38.67 49.84,25.79 109.14,73.05 177.89,141.8 41.24,41.25 97.1,112.58 167.57,213.98 70.47,101.41 128.91,188.2 175.31,260.39 46.41,72.19 93.67,149.53 141.8,232.03 48.12,82.5 97.96,173.59 149.53,273.28 34.37,68.75 67.03,134.92 97.96,198.51 30.94,63.59 63.6,138.36 97.97,224.29 20.63,-120.31 30.94,-232.02 30.94,-335.15 0,-85.94 -8.59,-202.81 -25.78,-350.62l-20.63 -165 -15.47 -123.75 -46.4 -283.59c-27.5,-120.31 -41.25,-206.24 -41.25,-257.81 0,-44.68 12.03,-67.03 36.09,-67.03l850.77 0c27.5,0 49.85,24.92 67.03,74.77 17.19,49.84 30.94,100.54 41.25,152.11 10.32,51.56 21.49,136.63 33.52,255.23 12.03,118.59 20.62,200.23 25.78,244.92 5.16,44.68 12.89,156.4 23.2,335.15 10.32,178.75 15.47,364.37 15.47,556.87l0 623.9 -5.15 92.81 -20.63 531.08c0,323.13 -19.76,544.84 -59.3,665.15 -39.53,120.31 -90.23,180.47 -152.1,180.47l-866.24 0c-24.07,0 -44.69,-12.89 -61.88,-38.67 -17.18,-25.78 -39.53,-79.92 -67.03,-162.42l-25.78 -72.19 -92.81 -314.53c-48.12,-175.31 -116.87,-374.68 -206.25,-598.11l-134.06 -324.84c-99.69,-216.56 -177.03,-369.53 -232.03,-458.9 -55,-89.38 -123.75,-170.16 -206.24,-242.35l0 237.19c0,340.31 6.87,586.09 20.62,737.33 0,6.88 17.19,137.5 51.56,391.87l46.41 355.78 5.15 36.1c17.19,75.62 29.22,144.37 36.1,206.24 6.87,61.88 10.31,108.28 10.31,139.22 0,72.19 -17.19,108.28 -51.56,108.28l-876.55 0c-68.75,0 -116.88,-37.81 -144.38,-113.44 -13.75,-51.56 -24.92,-125.46 -33.51,-221.71 -8.6,-96.25 -12.89,-221.72 -12.89,-376.4l-25.78 -592.97 0 -794.05c0,-199.37 8.59,-403.9 25.78,-613.59 17.18,-209.68 25.78,-331.71 25.78,-366.09l5.15 -20.62 36.1 -257.81z"/>
  <path id="_1" fill="white" fill-rule="nonzero" d="M4766.55 3949.13c17.18,-151.25 41.25,-257.81 72.18,-319.68 30.94,-61.88 61.88,-92.82 92.82,-92.82l840.45 0c30.94,0 46.41,36.1 46.41,108.28 0,24.07 -1.72,57.58 -5.16,100.55 -3.43,42.97 -10.31,91.95 -20.62,146.95l-30.94 180.47 -46.4 319.68c-20.63,171.88 -30.94,328.28 -30.94,469.22 0,309.37 8.59,501.86 25.78,577.49 17.19,75.62 29.22,122.03 36.09,139.22 3.44,13.75 16.33,38.67 38.68,74.76 22.34,36.09 48.12,59.3 77.34,69.61 29.22,10.31 55.86,15.47 79.92,15.47 37.81,0 67.03,-8.6 87.65,-25.78 41.25,-27.5 73.91,-67.03 97.97,-118.6 24.06,-51.56 49.84,-152.96 77.34,-304.21l10.32 -87.66c10.31,-89.37 15.47,-163.28 15.47,-221.71 0,-37.81 -0.86,-78.2 -2.58,-121.17 -1.72,-42.97 -2.58,-90.24 -2.58,-141.8 0,-20.62 0,-37.81 0,-51.56l-15.47 -216.56 -5.16 -51.56 -10.31 -92.81 -20.62 -170.16 -36.1 -232.03 -5.15 -30.93c-20.63,-103.13 -30.94,-178.75 -30.94,-226.88 0,-72.18 22.34,-108.28 67.03,-108.28l855.93 0c27.5,0 50.7,24.07 69.61,72.19 18.9,48.13 36.95,149.53 54.14,304.22l30.93 319.68 10.32 319.68 5.15 170.16 5.16 154.68 0 185.63 0 144.37 -5.16 175.31 -10.31 206.25 -5.16 113.43 -15.46 257.81c0,202.81 -14.61,344.61 -43.83,425.39 -29.22,80.78 -64.45,121.17 -105.7,121.17l-690.93 0c-27.5,0 -55,-20.62 -82.5,-61.87l-5.16 -113.44 -25.78 -134.06c-41.25,44.69 -84.22,84.22 -128.9,118.59l-128.91 77.34c-113.43,65.32 -194.22,106.57 -242.34,123.75 -48.12,17.19 -110,25.78 -185.62,25.78 -233.75,0 -409.06,-73.04 -525.93,-219.13 -116.88,-146.1 -201.1,-411.64 -252.66,-796.64 -10.31,-82.5 -18.04,-152.1 -23.2,-208.82 -5.16,-56.72 -7.73,-150.39 -7.73,-281.01l-5.16 -247.5 0 -113.44 15.47 -366.09 41.25 -360.93z"/>
  <path id="_2" fill="white" fill-rule="nonzero" d="M7855.11 3531.48l41.25 5.15 15.46 -113.43c24.07,-195.94 59.3,-323.98 105.71,-384.14 46.4,-60.15 158.98,-119.45 337.73,-177.89l247.49 -92.81c99.69,-37.81 189.06,-61.87 268.13,-72.18 44.68,0 79.06,9.45 103.12,28.35 24.06,18.91 32.66,42.11 25.78,69.61l-51.56 170.16c-27.5,51.56 -47.27,113.43 -59.3,185.62 -12.03,72.19 -18.04,137.5 -18.04,195.94 0,58.43 5.15,116.87 15.46,175.31l123.75 5.15c92.81,0 160.7,11.17 203.67,33.52 42.97,22.34 67.89,55.86 74.77,100.54l-30.94 159.85c-30.94,134.06 -49.84,204.52 -56.72,211.4 -3.44,3.44 -62.73,10.31 -177.89,20.62 -115.15,10.32 -182.18,30.08 -201.09,59.3 -18.9,29.22 -28.36,114.3 -28.36,255.23 0,65.31 0,137.5 0,216.56 0,79.06 1.72,165 5.16,257.81l20.62 242.34c20.63,165 42.11,294.76 64.46,389.29 22.34,94.53 45.54,171.02 69.61,229.45l144.37 350.63c17.19,27.49 12.03,58.43 -15.47,92.81 -37.81,48.12 -115.16,108.28 -232.03,180.46l-92.81 51.57 -211.4 108.28c-110,54.99 -194.22,82.49 -252.66,82.49 -85.93,0 -156.4,-55 -211.4,-164.99 -55,-110 -108.28,-304.22 -159.84,-582.65 -17.19,-92.81 -32.66,-211.41 -46.41,-355.78 -13.75,-144.37 -20.62,-314.53 -20.62,-510.46l0 -391.87c0,-55 0,-110 0,-165 0,-55 1.72,-110 5.15,-165 0,-34.37 -3.43,-60.16 -10.31,-77.34 -3.44,-13.75 -16.33,-35.24 -38.67,-64.45 -22.34,-29.22 -52.42,-43.83 -90.23,-43.83 -55,0 -122.03,29.22 -201.1,87.65l-30.93 -252.65 -5.16 -92.81c17.19,-120.31 45.55,-193.36 85.08,-219.14 39.53,-25.78 134.92,-38.67 286.17,-38.67z"/>
  <path id="_3" fill="white" fill-rule="nonzero" d="M9577.28 3557.26c20.62,-13.75 41.25,-20.63 61.87,-20.63l773.43 0c17.19,13.75 30.94,27.5 41.25,41.25 13.75,27.5 29.22,75.63 46.4,144.38 3.44,27.5 15.47,46.4 36.1,56.72 20.62,10.31 39.53,12.03 56.72,5.15 27.5,-17.19 55.85,-40.39 85.07,-69.61 29.22,-29.22 74.77,-81.64 136.64,-157.26 20.63,-27.5 45.55,-48.98 74.77,-64.45 29.21,-15.47 61.87,-25.78 97.96,-30.94 36.1,-5.16 67.89,-7.73 95.39,-7.73 123.75,0 232.03,46.4 324.84,139.21 65.32,58.44 111.72,139.22 139.22,242.34 10.31,48.13 15.47,94.53 15.47,139.22 0,158.12 -48.98,281.01 -146.95,368.67 -97.97,87.65 -176.17,131.48 -234.61,131.48 -17.19,0 -32.65,-6.87 -46.4,-20.62l-25.79 -108.28c-27.5,-120.31 -89.37,-180.47 -185.62,-180.47 -55,0 -113.43,20.62 -175.31,61.87 -92.81,61.88 -152.11,170.16 -177.89,324.84 -25.78,154.69 -38.67,460.62 -38.67,917.81l5.16 56.71 134.06 902.34c13.75,51.56 -5.16,77.34 -56.72,77.34l-928.11 0c-17.19,0 -30.94,-12.03 -41.25,-36.09 -10.32,-24.07 -20.63,-82.5 -30.94,-175.31l-20.63 -195.94 -5.15 -30.94 -25.78 -324.84 -10.31 -164.99 -10.32 -154.69 -15.47 -335.15c0,-213.12 -2.57,-421.95 -7.73,-626.48 -5.16,-204.53 -7.73,-322.26 -7.73,-353.2 0,-244.06 3.43,-391.01 10.31,-440.85 6.87,-49.85 25.78,-86.8 56.72,-110.86z"/>
  <path id="_4" fill="white" fill-rule="nonzero" d="M11753.19 4506c0,-409.06 11.17,-672.88 33.51,-791.48 22.34,-118.59 66.17,-177.89 131.48,-177.89l757.96 0c68.75,0 103.13,67.04 103.13,201.1 0,48.12 -1.72,85.93 -5.16,113.43l-5.15 36.1 -15.47 195.93 -10.32 139.22 0 97.97c0,113.43 1.72,222.57 5.16,327.41 3.44,104.85 6.88,207.11 10.31,306.8l15.47 175.31 15.47 154.68 20.62 242.34 36.1 314.53 10.31 77.34c34.37,237.19 51.56,397.03 51.56,479.53 0,72.19 -15.47,108.28 -46.4,108.28l-948.74 0c-41.25,0 -72.19,-42.97 -92.81,-128.9 -30.94,-120.32 -46.41,-323.13 -46.41,-608.44l-15.47 -438.27 -5.15 -87.66 0 -737.33zm654.83 -1175.61c-192.5,0 -331.71,-21.49 -417.65,-64.46 -85.94,-42.96 -142.65,-124.6 -170.15,-244.91 -10.32,-41.25 -15.47,-79.07 -15.47,-113.44 0,-116.87 42.11,-212.26 126.32,-286.17 84.22,-73.9 201.96,-110.86 353.2,-110.86 333.44,0 500.15,154.69 500.15,464.06 0,113.44 -61.87,211.4 -185.62,293.9 -41.25,24.06 -75.62,40.39 -103.12,48.99 -27.5,8.59 -56.72,12.89 -87.66,12.89z"/>
  <path id="_5" fill="white" fill-rule="nonzero" d="M15893.61 5960.04c68.75,237.19 103.12,391.87 103.12,464.06 0,55 -22.34,82.5 -67.03,82.5l-1005.46 0c-51.56,0 -94.53,-42.97 -128.9,-128.9 -48.13,-120.32 -72.19,-304.22 -72.19,-551.72l-15.47 -546.55 41.25 -551.72c10.31,-127.18 20.63,-238.04 30.94,-332.57 10.31,-94.53 20.62,-167.58 30.94,-219.14 34.37,-161.56 57.57,-285.31 69.6,-371.24 12.04,-85.94 14.61,-140.94 7.74,-165 -6.88,-34.38 -23.2,-60.16 -48.98,-77.34 -25.79,-17.19 -55.86,-20.63 -90.24,-10.32 -55,13.75 -110,37.82 -165,72.19l-201.09 128.9 -211.4 144.38 -103.13 87.65 -10.31 10.32c-17.18,17.18 -60.15,32.65 -128.9,46.4 -6.88,-27.5 -13.75,-55 -20.63,-82.5 -3.43,-17.19 -5.15,-41.25 -5.15,-72.18 0,-58.44 18.9,-161.57 56.71,-309.38l46.41 -185.62 25.78 -92.81c58.44,-216.56 127.19,-353.2 206.25,-409.92 79.06,-56.72 278.43,-105.7 598.12,-146.95 82.5,-6.87 146.95,-12.03 193.35,-15.47 46.41,-3.43 133.21,-5.15 260.39,-5.15l170.16 0 190.78 0c85.93,0 168.43,3.43 247.49,10.31 79.06,6.87 152.97,15.47 221.72,25.78 323.12,55 533.66,109.14 631.63,162.42 97.97,53.28 146.95,146.95 146.95,281.01 0,55 -8.59,130.63 -25.78,226.87l-51.56 278.44c-13.75,82.5 -26.64,143.51 -38.67,183.04 -12.03,39.53 -26.64,70.47 -43.83,92.82 -17.19,22.34 -46.4,33.51 -87.65,33.51 -34.38,0 -61.88,-12.03 -82.5,-36.09 -48.13,-58.44 -87.66,-122.03 -118.6,-190.78 -17.18,-37.81 -37.81,-71.33 -61.87,-100.55 -24.06,-29.22 -62.73,-69.61 -116.01,-121.17 -53.28,-51.56 -110.86,-77.34 -172.74,-77.34 -61.87,0 -110.85,23.2 -146.95,69.61 -36.09,46.4 -59.29,102.26 -69.61,167.57l-51.56 273.28c-13.75,130.63 -24.92,271.56 -33.51,422.81 -8.6,151.25 -12.89,297.34 -12.89,438.28 0,58.43 0,103.12 0,134.06l10.31 221.71c0,171.88 12.03,330 36.09,474.37 10.31,68.75 30.94,158.13 61.88,268.12z"/>
  <path id="_6" fill="white" fill-rule="nonzero" d="M17162.03 3557.26c20.62,-13.75 41.25,-20.63 61.87,-20.63l773.43 0c17.19,13.75 30.94,27.5 41.25,41.25 13.75,27.5 29.22,75.63 46.4,144.38 3.44,27.5 15.47,46.4 36.1,56.72 20.62,10.31 39.53,12.03 56.72,5.15 27.5,-17.19 55.85,-40.39 85.07,-69.61 29.22,-29.22 74.77,-81.64 136.64,-157.26 20.63,-27.5 45.55,-48.98 74.77,-64.45 29.21,-15.47 61.87,-25.78 97.96,-30.94 36.1,-5.16 67.89,-7.73 95.39,-7.73 123.75,0 232.03,46.4 324.84,139.21 65.32,58.44 111.72,139.22 139.22,242.34 10.31,48.13 15.47,94.53 15.47,139.22 0,158.12 -48.98,281.01 -146.95,368.67 -97.97,87.65 -176.17,131.48 -234.61,131.48 -17.19,0 -32.65,-6.87 -46.4,-20.62l-25.79 -108.28c-27.5,-120.31 -89.37,-180.47 -185.62,-180.47 -55,0 -113.43,20.62 -175.31,61.87 -92.81,61.88 -152.11,170.16 -177.89,324.84 -25.78,154.69 -38.67,460.62 -38.67,917.81l5.16 56.71 134.06 902.34c13.75,51.56 -5.16,77.34 -56.72,77.34l-928.11 0c-17.19,0 -30.94,-12.03 -41.25,-36.09 -10.32,-24.07 -20.63,-82.5 -30.94,-175.31l-20.63 -195.94 -5.15 -30.94 -25.78 -324.84 -10.31 -164.99 -10.32 -154.69 -15.47 -335.15c0,-213.12 -2.57,-421.95 -7.73,-626.48 -5.16,-204.53 -7.73,-322.26 -7.73,-353.2 0,-244.06 3.43,-391.01 10.31,-440.85 6.87,-49.85 25.78,-86.8 56.72,-110.86z"/>
  <path id="_7" fill="white" fill-rule="nonzero" d="M21395.26 6506.6l-1031.24 0c-41.25,0 -82.5,0 -123.75,0 -61.88,-10.31 -110,-17.19 -144.37,-20.62l-139.22 -20.63c-165,-34.37 -291.33,-78.2 -378.98,-131.48 -87.66,-53.28 -168.44,-136.64 -242.34,-250.08 -73.91,-113.43 -110.86,-256.09 -110.86,-427.96 0,-79.06 6.87,-151.25 20.62,-216.56 30.94,-161.56 116.88,-311.09 257.81,-448.59 154.69,-147.81 357.5,-264.68 608.43,-350.62 103.13,-30.94 170.16,-48.13 201.1,-51.56 65.31,-13.75 101.4,-20.63 108.28,-20.63 17.18,-3.43 32.65,-8.59 46.4,-15.47l36.09 -72.18 41.25 -92.81c3.44,-13.75 -5.15,-39.53 -25.78,-77.35 -20.62,-37.81 -42.97,-73.9 -67.03,-108.28 -44.68,-61.87 -123.75,-92.81 -237.18,-92.81 -75.63,0 -159.84,17.19 -252.66,51.56 -75.62,34.38 -138.35,88.52 -188.2,162.42 -49.84,73.91 -93.67,110.86 -131.48,110.86 -37.81,0 -103.98,-38.67 -198.51,-116.01 -94.53,-77.35 -141.8,-171.02 -141.8,-281.01 0,-123.75 56.72,-235.47 170.16,-335.16 89.37,-79.06 226.87,-146.09 412.49,-201.09 55,-17.19 113.44,-29.22 175.31,-36.09 61.88,-6.88 130.63,-10.31 206.25,-10.31 824.99,0 1237.49,374.68 1237.49,1124.04l10.31 206.25 0 30.94 0 381.56 0 41.25 5.15 360.93 0 144.37 0 252.66 -5.15 407.34c-17.19,68.75 -56.72,103.12 -118.59,103.12zm-1160.15 -871.4c17.19,82.5 45.55,143.52 85.08,183.05 39.53,39.53 85.08,59.29 136.64,59.29 68.75,0 105.7,-24.06 110.86,-72.18 5.15,-48.13 10.31,-89.38 15.47,-123.75 5.15,-34.37 7.73,-73.91 7.73,-118.59 0,-61.88 0,-104.85 0,-128.91 0,-82.5 -8.59,-142.65 -25.78,-180.46 -17.19,-37.82 -56.72,-56.72 -118.59,-56.72 -24.07,0 -50.71,7.73 -79.92,23.2 -29.22,15.47 -60.16,51.56 -92.82,108.28 -32.65,56.72 -48.98,124.61 -48.98,203.67 0,20.62 3.44,55 10.31,103.12z"/>
  <path id="_8" fill="white" fill-rule="nonzero" d="M23885.69 4454.44l-108.28 30.93c-20.62,-37.81 -39.53,-70.46 -56.72,-97.96 -17.18,-27.5 -41.25,-56.72 -72.18,-87.66 -79.06,-82.5 -166.72,-123.75 -262.97,-123.75 -140.93,0 -262.96,82.5 -366.09,247.5 -44.69,68.75 -76.48,152.97 -95.39,252.65 -18.9,99.69 -28.36,218.28 -28.36,355.78 0,237.18 50.71,421.09 152.11,551.71 101.41,130.63 234.61,195.94 399.61,195.94 72.18,0 142.65,-12.03 211.4,-36.1 127.19,-37.81 244.06,-127.18 350.62,-268.12l56.72 -87.65c99.68,34.37 149.53,127.18 149.53,278.43 0,61.88 -5.16,134.06 -15.47,216.56 -30.94,213.12 -131.48,385 -301.64,515.62 -170.15,130.62 -394.45,195.94 -672.88,195.94 -30.94,0 -61.87,0 -92.81,0 -44.69,-6.88 -77.34,-10.32 -97.97,-10.32 -216.56,-20.62 -401.32,-85.07 -554.29,-193.35 -152.97,-108.28 -287.89,-268.99 -404.76,-482.11 -99.69,-182.18 -149.53,-422.81 -149.53,-721.86 0,-158.13 18.05,-340.31 54.14,-546.56 36.09,-206.25 105.7,-388.43 208.83,-546.56 189.06,-285.31 436.55,-472.65 742.49,-562.02 154.68,-44.69 300.77,-67.03 438.27,-67.03 309.37,0 539.68,99.68 690.93,299.06 72.19,99.68 108.28,199.37 108.28,299.06 0,85.93 -24.92,164.13 -74.76,234.6 -49.85,70.47 -119.45,122.89 -208.83,157.27z"/>
  <path id="_9" fill="white" fill-rule="nonzero" d="M24664.27 3093.2c27.5,-209.68 54.14,-336.87 79.92,-381.56 25.78,-44.68 91.96,-67.03 198.52,-67.03l716.71 0c65.31,0 97.96,39.53 97.96,118.6 0,41.25 -3.43,79.06 -10.31,113.43 -17.19,65.31 -30.93,118.59 -41.25,159.84 -10.31,41.25 -19.76,86.8 -28.36,136.64 -8.59,49.85 -16.32,100.55 -23.2,152.11l-15.47 159.84 -15.47 134.06 -5.15 61.88 -20.63 237.18c-10.31,110 -15.47,189.06 -15.47,237.19 0,68.75 24.07,137.5 72.19,206.25 51.56,-41.25 87.66,-81.64 108.28,-121.18 20.63,-39.53 44.69,-110.85 72.19,-213.98l51.56 -195.93c30.94,-127.19 55,-207.97 72.19,-242.34 17.18,-34.38 37.81,-51.57 61.87,-51.57l809.52 0c58.44,0 87.66,48.13 87.66,144.38 0,85.93 -27.5,216.56 -82.5,391.87 -17.19,44.69 -31.8,80.78 -43.83,108.28 -12.03,27.5 -40.39,80.78 -85.08,159.84l-67.03 118.59 -185.62 278.44 -20.62 72.18c0,48.13 18.04,95.39 54.14,141.8 36.09,46.4 126.32,138.36 270.7,275.85 44.68,37.82 88.51,94.54 131.48,170.16 42.97,75.62 85.08,177.03 126.32,304.21 55,161.56 93.68,291.33 116.02,389.3 22.34,97.96 33.51,183.04 33.51,255.23 0,58.43 -6.87,99.68 -20.62,123.75 -13.75,24.06 -30.94,36.09 -51.56,36.09l-933.27 0c-37.81,0 -63.6,-27.5 -77.35,-82.5l-51.56 -371.24 -5.15 -30.94 -72.19 -324.84c-27.5,-123.75 -58.44,-213.98 -92.81,-270.7 -34.38,-56.72 -68.75,-88.52 -103.13,-95.39 -41.24,-13.75 -69.6,-5.16 -85.07,25.78 -15.47,30.94 -23.21,63.59 -23.21,97.97 0,30.93 3.44,77.34 10.32,139.21 6.87,61.88 12.03,123.75 15.47,185.63l30.93 283.59 0 36.09c24.06,130.62 36.1,228.59 36.1,293.9 0,75.63 -22.35,113.44 -67.03,113.44l-933.27 0c-48.13,0 -82.5,-85.08 -103.13,-255.23 -20.62,-170.16 -30.94,-396.17 -30.94,-678.04 0,-58.44 -3.43,-174.45 -10.31,-348.04 -6.87,-173.59 -10.31,-281.02 -10.31,-322.27l0 -149.52 0 -366.09c0,-199.38 2.58,-360.08 7.73,-482.11 5.16,-122.03 12.89,-265.54 23.21,-430.54l10.31 -97.97 36.09 -283.59z"/>
  <path id="_10" fill="white" fill-rule="nonzero" d="M29145 5753.8c158.12,-48.13 281.01,-110 368.67,-185.63 87.65,-75.62 148.67,-170.15 183.04,-283.59 89.38,116.88 134.06,244.06 134.06,381.56 0,130.62 -44.68,276.72 -134.06,438.28 -65.31,120.31 -166.71,222.57 -304.21,306.79 -137.5,84.22 -305.94,138.36 -505.31,162.42 -72.19,10.31 -146.09,15.47 -221.72,15.47 -44.68,0 -79.06,-1.72 -103.12,-5.16 -323.12,0 -584.37,-98.82 -783.74,-296.48 -199.37,-197.65 -335.15,-488.98 -407.34,-873.97 -20.62,-89.38 -30.94,-178.75 -30.94,-268.12 0,-460.62 84.22,-826.71 252.66,-1098.27 168.43,-271.56 409.05,-453.75 721.86,-546.56 134.06,-41.25 268.13,-61.87 402.19,-61.87 326.55,0 584.36,77.34 773.42,232.03 189.06,154.68 283.59,347.18 283.59,577.49 0,48.12 -1.71,85.94 -5.15,113.44 -3.44,27.49 -13.75,68.74 -30.94,123.74l-41.25 113.44c-61.87,137.5 -151.25,245.78 -268.12,324.84 -116.87,79.06 -340.31,178.75 -670.3,299.06l-118.6 36.09c-13.75,6.88 -27.5,13.75 -41.25,20.63 -13.75,6.87 -39.53,25.78 -77.34,56.71l-56.72 56.72c-34.37,44.69 -51.56,94.53 -51.56,149.53 0,96.25 46.41,165 139.22,206.25 72.18,30.94 190.78,46.41 355.78,46.41 68.74,0 147.81,-13.75 237.18,-41.25zm-835.3 -1335.46c-6.88,48.13 -10.32,79.06 -10.32,92.81 0,106.57 39.54,152.97 118.6,139.22 58.43,-6.87 113.43,-22.34 165,-46.4 72.18,-34.38 128.04,-66.18 167.57,-95.39 39.53,-29.22 67.89,-61.02 85.08,-95.39 30.94,-58.44 42.97,-113.44 36.09,-165 -6.87,-48.13 -31.79,-87.66 -74.76,-118.59 -42.97,-30.94 -93.67,-41.25 -152.11,-30.94 -79.06,17.19 -150.39,56.72 -213.98,118.59 -63.6,61.88 -103.99,128.91 -121.17,201.09z"/>
  <path id="_11" fill="white" fill-rule="nonzero" d="M30310.3 3557.26c20.62,-13.75 41.25,-20.63 61.87,-20.63l773.43 0c17.19,13.75 30.94,27.5 41.25,41.25 13.75,27.5 29.22,75.63 46.4,144.38 3.44,27.5 15.47,46.4 36.1,56.72 20.62,10.31 39.53,12.03 56.72,5.15 27.5,-17.19 55.85,-40.39 85.07,-69.61 29.22,-29.22 74.77,-81.64 136.64,-157.26 20.63,-27.5 45.55,-48.98 74.77,-64.45 29.21,-15.47 61.87,-25.78 97.96,-30.94 36.1,-5.16 67.89,-7.73 95.39,-7.73 123.75,0 232.03,46.4 324.84,139.21 65.32,58.44 111.72,139.22 139.22,242.34 10.31,48.13 15.47,94.53 15.47,139.22 0,158.12 -48.98,281.01 -146.95,368.67 -97.97,87.65 -176.17,131.48 -234.61,131.48 -17.19,0 -32.65,-6.87 -46.4,-20.62l-25.79 -108.28c-27.5,-120.31 -89.37,-180.47 -185.62,-180.47 -55,0 -113.43,20.62 -175.31,61.87 -92.81,61.88 -152.11,170.16 -177.89,324.84 -25.78,154.69 -38.67,460.62 -38.67,917.81l5.16 56.71 134.06 902.34c13.75,51.56 -5.16,77.34 -56.72,77.34l-928.11 0c-17.19,0 -30.94,-12.03 -41.25,-36.09 -10.32,-24.07 -20.63,-82.5 -30.94,-175.31l-20.63 -195.94 -5.15 -30.94 -25.78 -324.84 -10.31 -164.99 -10.32 -154.69 -15.47 -335.15c0,-213.12 -2.57,-421.95 -7.73,-626.48 -5.16,-204.53 -7.73,-322.26 -7.73,-353.2 0,-244.06 3.43,-391.01 10.31,-440.85 6.87,-49.85 25.78,-86.8 56.72,-110.86z"/>
  <path id="_12" fill="white" fill-rule="nonzero" d="M34582.47 4406.86l46.57 -67.73c50.8,56.45 88.19,122.77 112.18,198.97 23.99,76.2 35.98,162.27 35.98,258.23 -5.64,39.51 -11.99,73.38 -19.05,101.6 -7.05,28.22 -17.63,56.44 -31.75,84.67 -53.62,121.35 -124.17,206.02 -211.66,254 -87.49,47.97 -230.01,71.96 -427.57,71.96 -53.62,0 -116.41,-2.11 -188.38,-6.35 -71.97,-4.23 -172.86,-11.99 -302.68,-23.28l-143.94 -16.93c-19.75,-2.83 -36.69,-4.24 -50.8,-4.24 -56.44,5.65 -112.89,11.29 -169.33,16.94l-71.97 8.46 -88.9 12.7 -160.86 25.4c-45.16,5.65 -73.38,8.47 -84.67,8.47 -39.51,0 -69.14,-8.47 -88.9,-25.4 -36.69,-31.04 -55.03,-94.54 -55.03,-190.5 0,-50.8 4.23,-117.12 12.7,-198.97 8.46,-81.84 39.51,-190.5 93.13,-325.96 36.69,-98.78 88.19,-194.74 154.52,-287.87 66.32,-93.13 157.34,-198.97 273.05,-317.5 50.8,-50.8 104.42,-100.19 160.86,-148.17 67.74,-59.26 153.81,-127 258.24,-203.2 25.4,-19.75 52.21,-45.86 80.43,-78.31 28.22,-32.46 60.68,-75.5 97.37,-129.12l55.03 -97.37c45.15,-107.24 67.73,-197.55 67.73,-270.93 0,-124.18 -59.26,-201.79 -177.8,-232.83 -28.22,-5.65 -49.39,-8.47 -63.5,-8.47 -59.26,0 -122.76,20.46 -190.5,61.39 -67.73,40.92 -149.58,109.36 -245.53,205.31l-50.8 63.5 -131.23 160.87c-14.11,16.93 -37.4,15.52 -69.85,-4.24 -32.46,-19.75 -67.03,-63.5 -103.72,-131.23l-67.73 -122.76c-62.09,-118.54 -93.14,-207.44 -93.14,-266.7 0,-79.03 66.33,-183.45 198.97,-313.27 200.38,-191.91 488.24,-287.87 863.6,-287.87 62.09,0 119.94,3.53 173.57,10.59 53.62,7.05 122.76,26.1 207.43,57.15 191.91,70.55 333.02,166.51 423.33,287.86 90.31,121.36 135.47,280.81 135.47,478.37 0,59.27 -4.24,122.77 -12.7,190.5 -25.4,208.84 -125.59,406.4 -300.57,592.66 -45.15,53.63 -132.64,128.42 -262.46,224.37l-114.3 80.43 -76.2 59.27 -8.47 8.47 -169.33 139.7c-67.74,56.44 -114.3,102.3 -139.7,137.58 -25.4,35.28 -35.28,65.62 -29.64,91.02 2.82,14.11 11.29,25.4 25.4,33.86 2.82,2.83 7.06,5.65 12.7,8.47l160.87 -12.7 182.03 0 182.04 21.17c42.33,5.64 73.37,7.05 93.13,4.23 59.27,-5.64 112.18,-22.58 158.75,-50.8 46.57,-28.22 92.43,-73.38 137.58,-135.47z"/>
  <path id="_13" fill="white" fill-rule="nonzero" d="M35475.71 2230.93l46.56 0 1507.07 0c87.49,0 131.23,57.86 131.23,173.57 0,84.67 -23.99,193.32 -71.96,325.97 -16.94,39.51 -36.69,81.13 -59.27,124.88 -22.58,43.74 -56.45,99.48 -101.6,167.22 -59.27,90.31 -110.07,156.63 -152.4,198.96 -79.02,81.85 -128.41,134.76 -148.17,158.75 -19.75,23.99 -28.22,43.04 -25.4,57.15 2.82,16.93 9.88,29.63 21.17,38.1 8.47,5.65 53.62,28.22 135.47,67.73 73.37,31.05 142.52,81.85 207.43,152.4 149.58,155.23 224.36,351.37 224.36,588.44 0,104.42 -16.93,214.49 -50.8,330.2 -62.08,217.31 -181.32,389.46 -357.71,516.46 -176.39,127 -391.58,190.5 -645.58,190.5 -31.05,0 -59.98,-0.7 -86.79,-2.11 -26.81,-1.41 -81.84,-8.47 -165.1,-21.17 -83.25,-12.7 -158.04,-28.22 -224.36,-46.57 -66.33,-18.34 -117.83,-37.39 -154.52,-57.15 -138.29,-73.37 -234.95,-131.23 -289.98,-173.56 -55.04,-42.34 -82.55,-86.08 -82.55,-131.24 0,-28.22 10.58,-61.38 31.75,-99.48 21.16,-38.1 52.91,-85.37 95.25,-141.82l93.13 -118.53 21.17 -25.4 42.33 -50.8 46.57 -59.27c25.4,-11.28 52.21,-7.05 80.43,12.7l21.17 16.94 29.63 25.4c76.2,67.73 146.05,112.18 209.55,133.35 63.5,21.16 123.47,31.75 179.92,31.75 155.22,0 265.28,-73.38 330.2,-220.14l29.63 -88.9c5.64,-33.86 8.47,-59.26 8.47,-76.2 0,-169.33 -94.55,-301.97 -283.64,-397.93 -56.44,-31.04 -125.59,-52.21 -207.43,-63.5l-97.37 -12.7c-19.75,0 -39.51,0 -59.26,0 -16.94,-2.82 -50.1,-9.88 -99.49,-21.17 -49.39,-11.28 -69.85,-42.33 -61.38,-93.13 0,-28.22 9.17,-54.33 27.52,-78.32 18.34,-23.98 59.97,-64.2 124.88,-120.65l198.97 -194.73 59.26 -55.03 131.24 -143.93c73.37,-76.2 121.35,-129.12 143.93,-158.75 22.58,-29.64 33.87,-57.15 33.87,-82.55 0,-11.29 -4.24,-25.4 -12.7,-42.34 -19.76,-36.69 -52.22,-55.03 -97.37,-55.03 -47.98,0 -114.3,14.11 -198.97,42.33l-232.83 71.97c-98.78,33.87 -172.16,50.8 -220.13,50.8 -90.31,0 -145.35,-81.85 -165.1,-245.53 -5.65,-45.16 -9.88,-74.79 -12.7,-88.9 -2.83,-22.58 -11.29,-58.57 -25.4,-107.95 -14.11,-49.39 -21.17,-89.61 -21.17,-120.65 0,-50.8 33.87,-76.2 101.6,-76.2l97.37 -4.24z"/>
 </g>
</svg>
